<svg width="32" height="32" viewBox="0 0 32 32" fill="none" xmlns="http://www.w3.org/2000/svg">
    <path
        d="M15.4763 7.81576C15.933 6.58592 16.2244 5.25633 16.6226 4C18.2879 4.13451 20.1535 4.83769 21.7777 5.2735C24.8507 6.09836 27.9332 6.87997 30.9997 7.73091C31.007 9.18466 30.8851 10.643 30.8401 12.0965C30.6758 17.3962 30.3715 22.7019 30.2502 28L15.1723 24.2643C13.6226 23.9307 12.0808 23.5601 10.5485 23.1529C9.62778 20.2762 8.91737 17.3383 7.98722 14.4591C7.10453 14.7712 6.23064 15.0429 5.32197 15.267C4.69709 14.0403 4.23876 12.7333 3.70943 11.4626L1 5.0225C2.57468 4.89626 4.15774 4.87081 5.73507 4.787C8.13494 4.65973 10.5324 4.49148 12.9355 4.43209C13.6754 5.72691 14.3792 6.80072 15.4763 7.81576ZM16.8364 4.29427C16.498 5.50879 16.2078 6.76885 15.7585 7.94488C16.8665 8.97399 18.0653 10.0582 19.4051 10.7696L18.8289 12.0121C20.2986 12.396 21.7656 12.7895 23.23 13.1929C24.2682 13.488 25.3406 13.9047 26.4113 14.0355C27.7437 17.9514 28.9063 21.9243 29.8956 25.9428L30.0233 26.2236C30.3355 24.6275 30.2023 22.7293 30.2666 21.0901L30.7337 7.9451C28.4468 7.21688 26.1036 6.66538 23.78 6.07001C21.4651 5.47672 19.162 4.84638 16.8364 4.29427ZM10.5819 4.81556C7.52316 4.92192 4.42333 5.27413 1.36666 5.22053C2.2473 7.38905 3.19975 9.52363 4.09922 11.6835C4.55038 12.7666 4.91541 13.9138 5.43511 14.9634C6.28568 14.7557 7.12192 14.5034 7.96921 14.287C7.63099 13.1206 6.55659 10.1538 6.67424 9.10602C6.85409 8.97503 6.75382 9.00834 6.97562 9.00648C10.8579 9.91288 14.6763 11.0566 18.5455 11.9829L18.9934 10.8104C17.7395 9.92778 16.5375 9.01559 15.3671 8.02063C15.0596 8.33476 14.7729 8.68325 14.3725 8.87322C14.4054 8.53156 14.8615 8.12079 15.0868 7.86439C14.0721 6.99069 13.4403 5.8366 12.6971 4.7363C11.9935 4.75989 11.2841 4.76589 10.5819 4.81556ZM6.89747 9.26557C7.57964 12.0272 8.40606 14.7329 9.17805 17.4682C9.69551 19.3023 10.124 21.1646 10.7171 22.9757C13.6052 23.6485 16.4877 24.3448 19.3647 25.065C20.9765 25.4693 28.7795 27.636 29.8449 27.5485C28.2657 23.0583 26.7246 18.5547 25.2211 14.038C22.989 13.1939 20.5367 12.7248 18.2261 12.1317C14.4498 11.1624 10.6977 10.142 6.89747 9.26557Z"
        fill="black" />
    <path
        d="M15.7578 7.94456C16.2071 6.76852 16.4973 5.50847 16.8357 4.29395C19.1613 4.84606 21.4644 5.4764 23.7793 6.06969C26.1029 6.66506 28.4461 7.21656 30.733 7.94478L30.2659 21.0898C30.2016 22.7289 30.3348 24.6272 30.0226 26.2233L29.8949 25.9425C28.9056 21.9239 27.743 17.9511 26.4106 14.0352C25.3399 13.9044 24.2675 13.4876 23.2294 13.1926C21.765 12.7892 20.2979 12.3956 18.8282 12.0118L19.4044 10.7693C18.0646 10.0578 16.8658 8.97367 15.7578 7.94456Z"
        fill="#F3C575" />
    <path
        d="M1.36719 5.22056C4.42385 5.27416 7.52368 4.92195 10.5824 4.81558C11.2846 4.76592 11.994 4.75992 12.6977 4.73633C13.4408 5.83662 14.0726 6.99072 15.0873 7.86442C14.862 8.12081 14.4059 8.53159 14.373 8.87325C14.7734 8.68328 15.0601 8.33479 15.3676 8.02066C16.538 9.01562 17.7401 9.92781 18.9939 10.8104L18.546 11.9829C14.6768 11.0567 10.8584 9.91291 6.97615 9.00651C6.75435 9.00837 6.85462 8.97506 6.67477 9.10605C6.55712 10.1538 7.63152 13.1207 7.96974 14.287C7.12245 14.5034 6.28621 14.7557 5.43564 14.9635C4.91593 13.9139 4.55091 12.7666 4.09975 11.6835C3.20028 9.52366 2.24783 7.38908 1.36719 5.22056Z"
        fill="#F3C575" />
    <path
        d="M10.7181 22.9758C10.1249 21.1646 9.69648 19.3024 9.17902 17.4683C8.40702 14.733 7.58061 12.0272 6.89844 9.26562C10.6987 10.142 14.4508 11.1624 18.2271 12.1317C20.5377 12.7248 22.99 13.194 25.2221 14.0381C26.7255 18.5547 28.2667 23.0583 29.8458 27.5485C28.7804 27.636 20.9774 25.4694 19.3657 25.065C16.4887 24.3449 13.6062 23.6485 10.7181 22.9758Z"
        fill="#FBF6EB" />
</svg>