<svg width="32" height="32" viewBox="0 0 32 32" fill="none" xmlns="http://www.w3.org/2000/svg">
    <path
        d="M22.7437 2.24305C22.225 2.38855 21.7976 2.59149 21.341 2.8558C21.6767 2.1214 23.1306 0.840332 23.7093 0C24.3729 0.606661 24.9194 1.37611 25.4921 2.05896C26.653 3.4436 27.8007 4.83297 29.0005 6.19062C28.0037 6.87739 27.0286 7.59019 26.0767 8.32812C25.3818 8.87557 24.7111 9.48959 23.9573 9.96695C23.5239 9.84511 23.1353 9.83853 22.6867 9.84059L22.3977 9.82655C23.1085 8.76502 23.695 7.59863 24.2861 6.47799C24.5888 5.90422 24.9692 5.29726 25.1685 4.68707C25.2465 4.44839 25.2702 4.232 25.2307 3.98468C25.1401 3.44194 24.8205 2.95309 24.34 2.62251C23.848 2.28713 23.3489 2.16224 22.7437 2.24305Z"
        fill="#F3C575" />
    <path
        d="M8.37713 3.4208C9.53154 2.7622 10.4722 1.9799 11.8362 1.65139C12.7342 1.43509 13.8882 1.45993 14.6989 1.91441C15.341 2.27424 15.5726 2.81276 15.7462 3.44672L15.7025 3.86095C15.6274 3.82423 15.6032 3.66429 15.5771 3.58742C15.406 2.95435 15.1993 2.41209 14.5572 2.04803C13.7965 1.61663 12.768 1.61918 11.9251 1.82104C10.6113 2.13581 9.46869 2.90525 8.38917 3.62669C7.99493 3.34422 7.41152 3.13126 6.90643 3.18183C6.38361 3.23416 5.94403 3.56051 5.64052 3.93448C5.19008 4.48459 4.99916 5.17599 5.11021 5.85501C5.19226 6.32667 5.45353 6.74198 5.88719 7.01502C6.20734 7.21668 6.57555 7.34667 6.89383 7.54676L6.80387 7.7069C6.09717 7.32016 5.4115 7.11987 5.07623 6.36142C4.79878 5.73365 4.84721 5.01192 5.13341 4.39446C5.38558 3.85054 5.83357 3.32252 6.45317 3.10741C7.23268 2.83672 7.69589 3.15129 8.37713 3.4208Z"
        fill="#010101" />
    <path
        d="M8.38917 3.62669C9.46869 2.90525 10.6113 2.13581 11.9251 1.82104C12.768 1.61918 13.7965 1.61663 14.5572 2.04803C15.1993 2.41209 15.406 2.95435 15.5771 3.58742C15.5791 4.112 15.5815 4.626 15.4713 5.14351C14.1499 5.08912 12.9207 5.24709 11.9056 6.08634C11.0006 6.83448 10.4675 7.97957 10.4128 9.08529C10.3996 9.3544 10.4129 9.63136 10.4714 9.89577L9.10054 9.88958C8.55361 9.32779 7.25439 8.49188 6.95338 7.87687C6.90466 7.77731 6.90048 7.65427 6.89383 7.54676C6.57555 7.34667 6.20734 7.21668 5.88719 7.01502C5.45353 6.74198 5.19226 6.32667 5.11021 5.85501C4.99916 5.17599 5.19008 4.48459 5.64052 3.93448C5.94403 3.56051 6.38361 3.23416 6.90643 3.18183C7.41152 3.13126 7.99493 3.34422 8.38917 3.62669Z"
        fill="#FBF6EB" />
    <path
        d="M22.7437 2.24305C23.3489 2.16224 23.848 2.28713 24.34 2.62251C24.8205 2.95309 25.1401 3.44194 25.2307 3.98468C25.2702 4.232 25.2465 4.44839 25.1685 4.68707C24.9692 5.29726 24.5888 5.90422 24.2861 6.47799C23.695 7.59863 23.1085 8.76502 22.3977 9.82655L22.6867 9.84059L22.6867 9.94325C21.8616 9.95238 20.9969 9.99784 20.1758 9.92136C20.4928 9.55121 20.6893 9.19089 20.8681 8.75173C21.3767 7.67998 22.5977 6.12578 22.6629 4.9584C22.6737 4.7642 22.5922 4.5648 22.5297 4.38139C22.4202 4.34045 22.3239 4.2299 22.2305 4.15941C21.7071 3.76423 21.3695 3.69118 20.7013 3.64396C21.0921 3.29502 21.5041 2.96915 21.9641 2.69817C22.1861 2.56739 22.7291 2.42975 22.8621 2.27266L22.7437 2.24305Z"
        fill="#433332" />
    <path
        d="M21.341 2.8558C21.7976 2.59149 22.225 2.38855 22.7437 2.24305L22.8621 2.27266C22.7291 2.42975 22.1861 2.56739 21.9641 2.69817C21.5041 2.96915 21.0921 3.29502 20.7013 3.64396C18.9881 3.76177 17.5175 4.3032 16.2166 5.32831L15.9953 5.28845C16.3757 4.99145 16.7632 4.70741 17.1992 4.48052C17.6775 4.23173 18.1932 4.02868 18.6475 3.74455C19.2309 3.58883 19.9134 3.56704 20.5173 3.54878C20.7786 3.30755 21.0658 3.08426 21.341 2.8558Z"
        fill="#010101" />
    <path
        d="M15.7462 3.44672C15.7799 3.64259 15.7985 3.83293 15.8076 4.03106C16.717 3.88546 17.7223 3.71747 18.6462 3.74437C18.192 4.0285 17.6762 4.23155 17.1979 4.48034C16.762 4.70723 16.3744 4.99127 15.9941 5.28827C15.8422 5.20963 15.6413 5.18229 15.4713 5.14351C15.5815 4.626 15.5791 4.112 15.5771 3.58742C15.6032 3.66429 15.6274 3.82423 15.7025 3.86095L15.7462 3.44672Z"
        fill="#433332" />
    <path
        d="M16.2166 5.32831C17.5175 4.3032 18.9881 3.76177 20.7013 3.64396C21.3695 3.69118 21.7071 3.76423 22.2305 4.15941C22.3239 4.2299 22.4202 4.34045 22.5297 4.38139C22.5922 4.5648 22.6737 4.7642 22.6629 4.9584C22.5977 6.12578 21.3767 7.67998 20.8681 8.75173C20.8205 8.22852 20.6379 7.71482 20.2671 7.3059C19.788 6.77749 19.1006 6.58653 18.3796 6.53773C17.8388 6.00098 17.0253 5.41942 16.2166 5.32831Z"
        fill="#8D6457" />
    <path
        d="M10.4698 9.89567C10.4113 9.63127 10.398 9.35431 10.4112 9.08519C10.4659 7.97948 10.999 6.83439 11.904 6.08625C12.9191 5.24699 14.1483 5.08902 15.4697 5.14342C15.6397 5.1822 15.8422 5.20963 15.9941 5.28827L16.2145 5.32849C17.0231 5.4196 17.8374 6.00122 18.3782 6.53798C18.802 7.10547 19.0283 7.66363 18.8863 8.36219C18.7748 8.91082 18.4825 9.46279 18.1055 9.89921C17.6007 10.0239 16.64 9.93112 16.0944 9.92984L10.4698 9.89567Z"
        fill="#B5CFF8" />
    <path
        d="M18.3796 6.53773C19.1006 6.58653 19.788 6.77749 20.2671 7.3059C20.6379 7.71482 20.8205 8.22852 20.8681 8.75173C20.6893 9.19089 20.4928 9.55121 20.1758 9.92136C19.5726 9.78528 18.7333 9.87791 18.107 9.89931C18.484 9.4629 18.7763 8.91093 18.8878 8.36229C19.0297 7.66373 18.8033 7.10522 18.3796 6.53773Z"
        fill="#F3C575" />
    <path
        d="M6.89383 7.54676C6.90048 7.65427 6.90466 7.77731 6.95338 7.87687C7.25439 8.49188 8.55361 9.32779 9.10054 9.88958C8.5127 9.91334 5.51776 10.058 5.19535 9.82203C5.47975 9.34075 5.81634 8.90158 6.18222 8.46938C6.39178 8.22177 6.65347 7.98917 6.80387 7.7069L6.89383 7.54676Z"
        fill="#433332" />
    <path
        d="M4.65703 9.82658C4.81508 9.75706 5.03 9.8018 5.19535 9.82203C5.51776 10.058 8.5127 9.91334 9.10054 9.88958L10.4714 9.89577L16.0959 9.92986C16.6414 9.93114 17.6021 10.024 18.107 9.89931C18.7333 9.87791 19.5726 9.78528 20.1758 9.92136C20.9969 9.99784 21.8616 9.95238 22.6867 9.94325C23.2486 9.97683 23.8507 9.99172 24.2432 10.4145C24.5347 10.7285 24.7041 11.1715 24.642 11.5829C24.5956 11.893 24.412 12.1721 24.134 12.3554C23.8763 12.5282 23.6421 12.5713 23.3299 12.589C22.0497 12.6617 20.7255 12.5881 19.439 12.5885L6.89912 12.5841C6.03422 12.5871 5.0398 12.6759 4.18972 12.5271C3.87652 12.4724 3.67673 12.3074 3.50437 12.067C3.29241 11.7714 3.16674 11.3478 3.26045 10.9985C3.42702 10.3776 4.12985 10.135 4.65703 9.82658Z"
        fill="#8D6457" />
    <path
        d="M4.47506 12.8157C4.25055 12.7814 4.0276 12.7477 3.82635 12.6452C3.42915 12.4429 3.14728 12.0833 3.04576 11.6811C2.93652 11.2646 3.0249 10.8255 3.28917 10.4716C3.63737 10.0143 4.09301 9.91199 4.65703 9.82658C4.12985 10.135 3.42702 10.3776 3.26045 10.9985C3.16674 11.3478 3.29241 11.7714 3.50437 12.067C3.67673 12.3074 3.87652 12.4724 4.18972 12.5271C5.0398 12.6759 6.03422 12.5871 6.89912 12.5841L19.439 12.5885C20.7255 12.5881 22.0497 12.6617 23.3299 12.589C23.6421 12.5713 23.8763 12.5282 24.134 12.3554C24.412 12.1721 24.5956 11.893 24.642 11.5829C24.7041 11.1715 24.5347 10.7285 24.2432 10.4145C23.8507 9.99172 23.2486 9.97683 22.6867 9.94325L22.6867 9.84059C23.1353 9.83853 23.5239 9.84511 23.9573 9.96695C24.4138 10.2692 24.7781 10.6347 24.8786 11.1594C24.9498 11.5307 24.8509 11.9123 24.6051 12.2153C24.3738 12.4985 23.9764 12.6975 23.6042 12.7749C22.2369 12.9336 20.7739 12.802 19.3926 12.8191C19.2572 14.3003 19.2233 15.7779 19.1263 17.2601L18.507 26.8489L18.3095 30.0433C18.2813 30.5346 18.2985 31.0389 18.2466 31.5267C18.2307 31.6767 18.2076 31.809 18.1216 31.94L18.0431 31.951C17.9765 31.781 17.9755 31.6082 17.9793 31.4295C18.0065 30.151 18.1655 28.8619 18.243 27.5841C18.5409 22.6688 18.9724 17.7479 19.1456 12.8276C17.3339 12.8268 15.5189 12.8043 13.7075 12.8277L13.8965 31.9885L13.6674 31.971C13.7119 30.1565 13.6261 28.3252 13.6135 26.5086L13.4848 12.8134C11.8563 12.7518 10.2051 12.7979 8.57404 12.7932C8.62038 14.3355 8.76142 15.8853 8.85728 17.4264L9.40678 26.2486L9.61417 29.8188C9.64732 30.415 9.72492 31.0412 9.70189 31.6359C9.69704 31.7596 9.72341 31.8304 9.6231 31.9169L9.51322 31.887C9.36864 31.3884 9.4325 30.6736 9.4071 30.1484C9.34556 28.8339 9.2761 27.5199 9.19877 26.2062L8.66517 17.8829C8.55183 16.1942 8.39367 14.4914 8.36105 12.8004C7.0695 12.8163 5.76559 12.8562 4.47506 12.8157Z"
        fill="#010101" />
    <path
        d="M4.47506 12.8157C5.76559 12.8562 7.0695 12.8163 8.36105 12.8004C8.39367 14.4914 8.55183 16.1942 8.66517 17.8829L9.19877 26.2062C9.2761 27.5199 9.34556 28.8339 9.4071 30.1484C9.4325 30.6736 9.36864 31.3884 9.51322 31.887L9.6231 31.9169C9.72341 31.8304 9.69704 31.7596 9.70189 31.6359C9.72492 31.0412 9.64732 30.415 9.61417 29.8188L9.40678 26.2486L8.85728 17.4264C8.76142 15.8853 8.62038 14.3355 8.57404 12.7932C10.2051 12.7979 11.8563 12.7518 13.4848 12.8134L13.6135 26.5086C13.6261 28.3252 13.7119 30.1565 13.6674 31.971C11.01 32.0305 8.33741 31.9788 5.67816 31.9842C5.50719 30.8557 5.49112 29.6654 5.41195 28.5259C5.25035 26.1466 5.10756 23.7664 4.98361 21.3854C4.90424 19.7371 4.80711 18.0895 4.69225 16.443C4.60935 15.2373 4.495 14.0236 4.47506 12.8157Z"
        fill="#8D6457" />
    <path
        d="M19.3926 12.8191C20.7739 12.802 22.2369 12.9336 23.6042 12.7749C23.5103 12.8026 23.3647 12.8185 23.313 12.8982C23.2248 13.0338 23.0684 16.6889 23.0381 17.1604L22.006 31.9812C19.3116 31.9869 16.587 31.9023 13.8965 31.9885L13.7075 12.8277C15.5189 12.8043 17.3339 12.8268 19.1456 12.8276C18.9724 17.7479 18.5409 22.6688 18.243 27.5841C18.1655 28.8619 18.0065 30.151 17.9793 31.4295C17.9755 31.6082 17.9765 31.781 18.0431 31.951L18.1216 31.94C18.2076 31.809 18.2307 31.6767 18.2466 31.5267C18.2985 31.0389 18.2813 30.5346 18.3095 30.0433L18.507 26.8489L19.1263 17.2601C19.2233 15.7779 19.2572 14.3003 19.3926 12.8191Z"
        fill="#8D6457" />
</svg>