<svg width="87" height="32" viewBox="0 0 87 32" fill="none" xmlns="http://www.w3.org/2000/svg">
    <path
        d="M44.0656 25.3754L37.8513 24.9223L27.1175 25.3754L14.6889 26.2817C14.6889 26.2817 14.459 26.3125 14.124 26.7348C13.7494 27.2069 12.9941 28.5473 12.9941 28.5473H45.1954V26.2817L44.0656 25.3754Z"
        fill="#F3C575" />
    <path
        d="M42.0632 28.4092C42.0814 28.4093 42.0998 28.4093 42.1185 28.4093C42.2058 28.4095 42.2993 28.4094 42.3949 28.4093M41.8393 28.5892C41.8127 28.5887 41.7862 28.5882 41.7597 28.5877L41.8393 28.5892ZM52.3695 1.19963C52.3666 1.20073 52.372 1.19866 52.3695 1.19963V1.19963ZM49.4454 27.8147C49.4368 27.822 49.4285 27.8292 49.4204 27.8363C49.427 27.8306 49.4385 27.8206 49.4454 27.8147C49.447 27.8133 49.4438 27.8161 49.4454 27.8147ZM47.3882 27.2019C47.3813 27.21 47.3745 27.2182 47.3676 27.2264L47.3882 27.2019ZM25.0676 19.9362C25.1003 19.8419 25.1337 19.7456 25.1678 19.6476L25.0676 19.9362Z"
        fill="black" />
    <path
        d="M54.1163 10.8182C54.0934 10.9196 54.1012 10.9334 54.1372 10.997C54.1431 11.0074 54.1461 11.0124 54.1535 11.0261C54.155 11.029 54.1603 11.0387 54.1619 11.0418C54.3594 11.1554 54.5065 11.18 54.7496 11.1839C55.1907 11.1911 56.5136 11.1565 56.8055 10.9359C56.8501 10.7967 56.805 10.66 56.7601 10.5239C56.751 10.4964 56.7419 10.4689 56.7336 10.4414C56.664 10.0002 56.5597 9.56578 56.4553 9.13091C56.3937 8.87433 56.3321 8.61745 56.2775 8.35907C56.2432 8.19662 56.217 8.03088 56.1922 7.86399C56.1884 7.83843 56.1845 7.81244 56.1808 7.78684C56.1789 7.77399 56.177 7.76114 56.1752 7.74829C56.1046 7.26582 56.0332 6.77784 55.8014 6.33597C55.5982 5.94289 55.2699 5.59947 54.8493 5.34008C54.3557 5.03536 53.8189 4.89888 53.2173 4.80199C52.0742 6.7591 49.9499 8.66427 47.5579 9.6938C47.5514 9.7502 47.5454 9.80725 47.5393 9.86468C47.5115 10.1269 47.4829 10.397 47.4116 10.6493C47.3426 10.8933 47.2698 11.0894 47.1982 11.2758L47.1678 11.3545C47.0222 11.7312 46.8919 12.0685 46.8443 12.6324C47.3165 12.2653 47.745 11.8665 48.1735 11.4678C48.1863 11.4559 48.1991 11.444 48.2119 11.432C48.2149 11.4292 48.2179 11.4264 48.2209 11.4236C48.4582 11.2029 48.696 10.9824 48.9419 10.7676C49.2669 10.4836 49.6015 10.2047 49.9364 9.9256C50.5379 9.42422 51.1402 8.92211 51.6897 8.38835L51.7322 8.42801C52.3315 8.98645 53.0031 9.61237 53.7508 10.0368C53.7332 9.91355 53.7048 9.77419 53.6749 9.62768C53.5924 9.2241 53.4989 8.76622 53.5916 8.44104L53.6649 8.37143C53.9061 8.89419 54.0514 10.0663 54.0735 10.6597L55.8324 10.6343C55.6611 10.7522 55.3154 10.7473 54.9628 10.7423C54.6455 10.7379 54.3226 10.7333 54.1163 10.8182ZM54.4254 11.3581C54.4324 11.4044 54.4393 11.4616 54.4471 11.5311C54.4491 11.5489 54.4516 11.5712 54.4537 11.59C54.4555 11.6064 54.4573 11.6233 54.4592 11.6404C54.5062 12.0725 54.5782 12.7335 54.752 12.9347L56.834 12.8562C56.8293 12.7526 56.8278 12.6355 56.8263 12.5114C56.821 12.082 56.8146 11.568 56.6678 11.23L56.5259 11.2117C56.3439 11.2224 56.1605 11.2313 55.9765 11.2402C55.4571 11.2654 54.9334 11.2907 54.4254 11.3581ZM46.3297 13.0767L46.1106 13.0779C45.7304 13.0798 45.3496 13.0817 44.97 13.0935L44.3999 13.1118C44.3812 13.2295 44.3573 13.3534 44.3326 13.4812C44.2009 14.1628 44.0479 14.9549 44.5531 15.5087C44.8187 15.7997 45.252 16.026 45.6698 16.1489C45.8019 16.0389 45.8396 15.9468 45.8901 15.8232C45.9 15.799 45.9104 15.7735 45.9221 15.7465C46.1644 15.1868 46.2663 14.5569 46.366 13.941C46.3684 13.926 46.3709 13.9107 46.3733 13.8957C46.3738 13.8925 46.3744 13.8893 46.3749 13.8861C46.4196 13.6101 46.4647 13.3374 46.5227 13.0753L46.3297 13.0767ZM21.1029 17.3573L21.1023 17.4643C21.097 18.3155 21.0917 19.1726 21.1684 20.0143C20.4642 19.2435 19.7163 18.4992 18.9272 17.7835L18.9022 17.8616C18.7567 18.3152 18.6824 18.5467 19.0238 18.9974C19.4746 19.5928 20.139 20.1535 20.767 20.6834C20.7954 20.7074 20.8253 20.7326 20.8537 20.7566C20.8568 20.7592 20.8599 20.7618 20.863 20.7645C21.0012 20.8811 21.1369 20.9963 21.2675 21.1101L21.2475 23.1291C21.2465 23.1561 21.2447 23.1833 21.2429 23.2103C21.2337 23.3475 21.2246 23.4837 21.3247 23.6023C21.4664 23.602 21.4701 23.5989 21.559 23.5252L21.5688 23.5171C21.765 23.3547 21.9378 23.1177 22.0758 22.9201C22.095 21.1998 22.0918 19.4793 22.066 17.759C22.5052 17.5318 24.1417 16.0653 24.2277 15.6884C24.238 15.6434 24.2321 15.6166 24.2239 15.5792L24.2198 15.5601C24.1049 15.4797 24.061 15.4711 23.9053 15.4791C23.6193 15.4939 23.3462 15.7929 23.069 16.0963C22.7909 16.4008 22.5087 16.7097 22.2054 16.7402C22.0726 16.6591 22.0507 16.5947 22.0286 16.4614C21.996 16.2641 22.0171 15.9845 22.0399 15.6829C22.0859 15.0727 22.1387 14.373 21.7666 14.0855C21.6635 14.0058 21.5266 13.9661 21.3882 13.9497C21.271 14.0593 21.1842 14.1429 21.1499 14.2874C21.0305 14.7891 21.0574 15.3611 21.0832 15.9072C21.0929 16.1129 21.1024 16.315 21.1039 16.5082C21.106 16.7899 21.1046 17.0732 21.1029 17.3573ZM9.13148 28.4619C9.28647 28.4593 9.44145 28.4568 9.59648 28.4543C10.682 28.4372 11.7684 28.4259 12.8513 28.4608L12.834 28.3173C12.7588 27.6901 12.6861 27.084 12.43 26.4806L12.4226 26.4687C12.2942 26.2609 12.1798 26.0757 11.9782 25.9044C11.9671 25.895 11.9561 25.8855 11.9452 25.876C11.933 25.8654 11.9209 25.8548 11.9086 25.8445C11.7522 25.7123 11.5756 25.5703 11.3317 25.5631C11.0935 25.556 10.895 25.7033 10.7521 25.8386C10.5824 25.9992 10.344 26.4108 10.1136 26.8085C9.85909 27.2479 9.61444 27.6703 9.48333 27.718C9.27891 27.6391 9.13155 27.4178 8.97827 27.1875C8.73027 26.815 8.46681 26.4192 7.9212 26.5662C7.61991 26.6474 7.48624 26.8996 7.35668 27.1441C7.22303 27.3963 7.09375 27.6402 6.78936 27.6796C6.57473 27.5513 6.48195 27.3125 6.38943 27.0743C6.24036 26.6905 6.09195 26.3084 5.43568 26.3934C4.94022 26.4576 4.62648 26.6959 4.2876 26.9533C4.23989 26.9896 4.19168 27.0262 4.14239 27.0628C4.10424 26.9387 4.06896 26.802 4.032 26.6588C3.85848 25.9866 3.64791 25.1708 2.92844 24.8452C2.69245 24.7384 2.45431 24.755 2.19532 24.7778C1.15744 25.2895 0.823509 26.411 0.55194 27.3231L0.516964 27.4403C0.416401 27.7815 0.320133 28.1236 0.228288 28.4664C2.75448 28.4889 5.28093 28.4938 7.80724 28.481C8.2481 28.4764 8.68988 28.4692 9.13148 28.4619ZM55.2372 15.8137C55.298 15.8358 55.3315 15.8474 55.3567 15.8476C55.3302 15.8474 55.3038 15.8379 55.2372 15.8137ZM52.5943 24.8355L52.9553 24.8336C52.835 24.8342 52.7146 24.8347 52.5943 24.8355Z"
        fill="black" />
    <path d="M57.0486 12.5856C57.041 12.5448 57.0337 12.5076 57.0255 12.4658L57.0371 12.5255L57.0486 12.5856Z"
        fill="black" />
    <path fill-rule="evenodd" clip-rule="evenodd"
        d="M42.0632 28.4092L42.1185 28.4093C42.2058 28.4095 42.2993 28.4094 42.3949 28.4093C43.2677 28.4085 44.4431 28.4078 45.1954 28.5473C45.1081 28.6038 44.8757 28.5897 44.6856 28.5785C44.5972 28.5733 44.5178 28.5686 44.4661 28.5718C43.6117 28.6239 42.7199 28.6065 41.8393 28.5892C41.4133 28.5809 40.9897 28.5726 40.5742 28.5723L32.2687 28.5699L13.3528 28.6106C12.1193 28.6111 10.8839 28.6054 9.64767 28.5994L9.40018 28.5982C6.26493 28.5829 3.1252 28.5675 0 28.6456C0.231319 27.5486 0.577224 26.1676 1.30453 25.2178C1.52474 24.9302 1.84171 24.6177 2.27832 24.5495C2.59403 24.5002 2.92112 24.5944 3.16987 24.7496C3.8992 25.2042 4.08378 26.1009 4.1952 26.7893L4.2263 26.7631C4.24297 26.7491 4.26668 26.729 4.28313 26.7149L4.31647 26.6861C4.51422 26.5152 4.68111 26.371 4.96521 26.2867C5.24176 26.2045 5.51313 26.2022 5.78235 26.3041C6.34916 26.5186 6.59774 27.0246 6.81514 27.4671L6.85948 27.5571C6.9192 27.4721 6.9738 27.3841 7.02834 27.2961C7.21863 26.9892 7.40829 26.6833 7.81293 26.5136C8.02959 26.4229 8.27746 26.4075 8.50613 26.4781C9.01326 26.6349 9.25705 27.0924 9.45956 27.4725L9.49975 27.5477C9.6044 27.3624 9.6941 27.1647 9.78437 26.9658C9.94531 26.6111 10.1081 26.2524 10.3606 25.9522C10.548 25.7293 10.9024 25.4365 11.2572 25.4056C11.5186 25.3828 11.7178 25.4538 11.9135 25.5872C12.7092 26.1297 12.9606 27.2692 13.0139 28.0633C13.9268 26.5174 15.3565 25.0565 17.3115 24.3199C17.0921 23.438 16.9567 22.5455 16.8214 21.6534C16.7889 21.439 16.7564 21.2247 16.7227 21.0106C16.6934 20.8244 16.6625 20.6316 16.631 20.4352C16.2264 17.9118 15.697 14.6096 16.5098 12.2859C16.8499 11.3136 17.4529 10.5067 18.5769 10.0054C19.9365 9.39913 21.8597 9.2065 23.3574 9.55082C24.4406 9.79452 25.3567 10.3768 25.8999 11.1671C27.5827 13.6121 26.2212 17.3774 25.2926 19.8975L25.384 19.8968C25.632 19.8945 25.8874 19.8921 26.1261 19.9457C27.6057 20.278 28.3337 21.505 28.9943 22.6183C29.2013 22.9671 29.4016 23.3048 29.6164 23.6003C29.7446 23.4928 29.8671 23.3776 29.9901 23.262C30.2131 23.0521 30.4378 22.8408 30.701 22.6718C31.0494 22.4481 31.5537 22.2562 32.0109 22.3159C32.7747 22.4155 33.3166 23.1586 33.7636 23.7715C33.9083 23.97 34.0432 24.1549 34.1723 24.2998C34.352 24.5013 34.5844 24.6782 34.903 24.7062C35.4258 24.7521 36.1391 24.1509 36.664 23.7086C36.8256 23.5724 36.9693 23.4513 37.0841 23.3687C37.822 22.8382 38.7569 22.3388 39.7914 22.4006C41.3389 22.493 42.4034 23.5177 43.3516 24.4304L43.4401 24.5155C43.5489 24.6201 43.6564 24.7228 43.763 24.8219C44.0324 25.1094 44.9678 26.0416 45.3374 26.1359L45.3388 24.8015C44.8182 24.7861 44.2808 24.7724 43.763 24.8219C43.9262 24.3799 44.001 23.8885 44.0736 23.411C44.1008 23.2324 44.1276 23.0558 44.1587 22.8845C44.3838 21.6395 44.5967 20.3931 44.7976 19.1456C44.8266 18.9703 44.854 18.794 44.8815 18.6171C44.972 18.0338 45.0634 17.4454 45.2164 16.8756C45.3224 17.0284 45.3251 17.1644 45.3283 17.3302L45.3293 17.3777L45.3182 17.5374C45.12 18.5315 44.9549 19.5308 44.7899 20.5294L44.7353 20.8593C44.6564 21.3357 44.5767 21.8121 44.4925 22.2877C44.4422 22.572 44.379 22.8586 44.3148 23.1459L44.302 23.2035C44.1976 23.6708 44.0929 24.1394 44.0396 24.6015C44.7268 24.6081 45.4144 24.6078 46.1021 24.6075C47.0722 24.607 48.0422 24.6066 49.0111 24.6255C49.1274 23.7774 49.2838 22.9357 49.4402 22.0933C49.5128 21.7024 49.5855 21.3114 49.6542 20.9195C49.8738 19.6666 50.0708 18.4105 50.2678 17.1549C50.3178 16.836 50.3679 16.5172 50.4182 16.1984C50.4629 15.9158 50.514 15.6277 50.5655 15.3371C50.7341 14.3871 50.908 13.4065 50.8819 12.4759L51.0258 12.3831L50.9963 12.3761L51.0224 12.3549C51.3666 12.0743 51.7002 11.8024 52.1207 11.5921L52.1657 11.6216C52.0085 11.8211 51.821 11.9869 51.629 12.1491L51.5466 12.2185C51.3945 12.3461 51.242 12.4742 51.1016 12.6174C51.0447 13.6842 51.0828 14.7383 51.1211 15.7988L51.1252 15.913C51.1348 16.1794 51.1442 16.4463 51.1519 16.7139C51.2596 19.3503 51.3334 21.9876 51.3732 24.6252C53.0129 24.5957 54.6419 24.5774 56.2816 24.6172C56.2425 23.807 56.1677 22.9994 56.0886 22.1921L56.0544 21.8459C55.9933 21.2274 55.9321 20.6088 55.885 19.989C55.8539 19.581 55.8341 19.1655 55.8142 18.7492C55.774 17.9075 55.7335 17.0586 55.599 16.2417C55.5837 16.1484 55.5721 16.1124 55.4969 16.0416C55.3517 16.0248 55.2383 16.0381 55.0954 16.055C54.9354 15.9358 54.7724 15.011 54.5876 13.9285C54.3536 12.5571 54.0764 10.9335 53.6975 10.3772C53.4851 10.0654 52.9135 9.64577 52.3972 9.26668C52.1277 9.06881 51.8732 8.88198 51.6927 8.7273C50.8842 9.38863 50.1011 10.0697 49.3183 10.7504C48.4736 11.4851 47.6293 12.2194 46.7535 12.9285L46.7058 13.1856C46.5353 14.103 46.3651 15.0192 46.2427 15.942C46.6883 16.4673 47.0127 17.1339 46.8685 17.7823C46.814 18.0274 46.7051 18.2188 46.4458 18.3623L46.4069 18.3666C46.2886 18.3801 46.2166 18.3884 46.1086 18.3106C45.9288 18.1813 45.8633 17.93 45.8305 17.7463L45.8301 17.7036C45.828 17.4685 45.8262 17.2747 45.9458 17.0482C45.9946 17.161 46.0095 17.3013 46.0247 17.4447C46.0494 17.6773 46.0749 17.9177 46.247 18.0615L46.3702 17.9183L46.3391 17.9155C46.3254 17.5938 46.1228 16.4869 45.9389 16.2334L45.8299 16.3346L45.3693 16.2998C45.2954 16.2505 45.217 16.2004 45.1366 16.1489C44.7432 15.8973 44.3023 15.6152 44.1154 15.2619C43.9382 14.9272 44.1127 13.156 44.1728 12.546L44.1818 12.4537C44.1895 12.375 44.2038 12.2869 44.2185 12.196C44.2509 11.9964 44.2858 11.7816 44.2587 11.6146C44.2448 11.53 44.1948 11.4559 44.1457 11.383C44.0958 11.3089 44.0467 11.2361 44.0374 11.1549C44.0152 10.9592 44.1148 10.6745 44.2072 10.4102C44.2597 10.2602 44.3098 10.1168 44.3341 10C44.4004 9.68097 44.4477 9.33966 44.4962 8.99018C44.6597 7.81232 44.8365 6.53896 45.7959 5.69117C46.779 4.82251 48.3232 4.54077 49.7279 4.49292C49.7707 4.29913 49.799 4.10281 49.8273 3.90703C49.8353 3.85132 49.8434 3.79563 49.8517 3.74003C49.8258 3.70059 49.7978 3.65443 49.7679 3.60513C49.6657 3.4365 49.5412 3.23119 49.4014 3.13279C49.3045 3.06452 49.19 3.03171 49.0746 2.99865C48.9933 2.97536 48.9116 2.95196 48.8354 2.91596C48.6039 2.80669 48.3585 2.6211 48.1707 2.46662C48.1549 2.45365 48.1392 2.44038 48.1237 2.42723L48.1031 2.40984L48.1256 2.45814L48.1012 2.49914C47.8147 2.97915 47.4445 3.5994 46.9153 3.91872C46.6585 4.07368 46.3798 4.11698 46.0666 4.08598L46.0892 4.01177C46.2158 3.9606 46.3317 3.91319 46.4428 3.84101C46.5235 3.7886 46.5263 3.75176 46.531 3.69088C46.5324 3.67302 46.5339 3.65308 46.5376 3.63008C46.3905 3.49089 46.1984 3.30252 46.2074 3.11358C46.1539 3.12304 46.0957 3.13516 46.0349 3.14783C45.8087 3.19495 45.5457 3.24975 45.3487 3.2045C45.4155 3.09874 45.4836 3.05848 45.5886 2.99633L45.629 2.97233C45.5651 2.97731 45.4736 2.99986 45.3779 3.02348C45.219 3.06268 45.0481 3.10483 44.9709 3.07453C45.2244 2.73364 45.5398 2.39868 46.0134 2.24792C46.0494 2.23647 46.0858 2.22753 46.121 2.21892C46.247 2.18801 46.3558 2.16134 46.3616 2.03812C46.2632 1.92613 46.118 1.86557 45.9765 1.80656C45.8356 1.74782 45.6985 1.69062 45.6149 1.58577C45.9717 1.54698 46.3723 1.65156 46.7598 1.7527C46.9723 1.80816 47.1809 1.8626 47.3761 1.8918C47.2209 1.81746 47.0695 1.74679 46.9056 1.68559C46.7658 1.63339 46.6863 1.5744 46.5792 1.48642L46.6142 1.44342C47.1151 1.53073 47.4669 1.63114 47.8947 1.85864C47.9612 1.89401 48.0289 1.92861 48.0963 1.96301C48.1404 1.98551 48.1853 2.00847 48.2291 2.03122L48.6464 1.84179C48.8464 1.17063 49.1031 0.608209 49.8842 0.229392C50.3351 0.0107806 50.9055 -0.0630492 51.4141 0.0579705C51.8975 0.177095 52.2978 0.451358 52.5201 0.815654C52.8728 1.38918 53.0447 2.48057 52.7491 3.08236C52.5489 3.48984 52.2535 3.67062 51.7686 3.84104C51.792 4.0605 51.818 4.27977 51.8466 4.49884C53.2501 4.54435 54.5001 4.64782 55.5061 5.5327C55.8204 5.80916 56.0243 6.17935 56.1593 6.53552C56.3234 6.96843 57.0671 10.675 57.0423 11.0069C57.0336 11.1239 57.0126 11.241 56.9916 11.3582C56.9639 11.5127 56.9362 11.6675 56.9365 11.822C56.9368 12.0175 56.9792 12.2316 57.0196 12.4359L57.0255 12.4658L57.0371 12.5255L57.0486 12.5856C57.055 12.62 57.061 12.6541 57.0665 12.6879C57.2796 14.0011 57.1554 14.9445 55.8035 15.8331C55.7843 15.8458 55.7646 15.8581 55.745 15.8705C55.9391 17.0021 56.0212 18.1503 56.103 19.2947C56.1324 19.7048 56.1616 20.1144 56.196 20.5226C56.2317 20.9459 56.2745 21.3704 56.3173 21.7952C56.4189 22.8022 56.5207 23.812 56.5289 24.818L55.2897 24.8065C55.2499 25.3342 55.2466 25.8604 55.2434 26.3888C54.5559 26.3106 53.8012 26.3447 53.0756 26.3774L52.9871 26.3814C52.7655 26.3913 52.5468 26.4011 52.3342 26.4078C52.3332 25.8798 52.3264 25.3519 52.3136 24.824L51.1736 24.8218L50.8979 15.8742C50.8972 15.8544 50.8969 15.8192 50.8966 15.7751C50.8952 15.5901 50.8927 15.2468 50.8476 15.21C50.796 15.2906 49.335 24.0508 49.2337 24.8221C48.9393 24.8316 48.6448 24.8305 48.3502 24.8294L48.1968 24.8289C48.1714 25.1567 48.1566 25.4859 48.1419 25.8148C48.1347 25.9737 48.1276 26.1325 48.1193 26.291C49.5273 26.5949 49.6271 26.8853 49.7239 27.167C49.7753 27.3165 49.8258 27.4636 50.0709 27.6088C50.1917 27.6804 50.3403 27.7075 50.4905 27.7349C50.6552 27.7649 50.8219 27.7953 50.9563 27.885C51.2977 28.1129 51.3727 28.592 51.4272 28.9397L51.4343 28.9854C49.3779 29.0088 47.321 29.0041 45.2646 28.971C45.268 28.8299 45.271 28.6884 45.2739 28.5469L45.2815 28.1617C45.2928 27.5812 45.3041 27.0008 45.3271 26.42C45.0043 26.1827 44.694 25.9365 44.3837 25.6887C44.1902 25.5133 43.9875 25.3144 43.7751 25.1041L43.6867 25.0166C42.6226 23.962 41.3201 22.6712 39.7167 22.6178C38.5962 22.5805 37.6823 23.1967 36.9259 23.7857C36.8284 23.8617 36.7184 23.9572 36.5992 24.0606C36.1562 24.4452 35.5861 24.9401 35.0539 24.9542C34.7239 24.9629 34.4111 24.8169 34.1829 24.6364C33.9311 24.4371 33.7165 24.1328 33.4942 23.8176C33.0592 23.2009 32.5948 22.5424 31.7645 22.5476C31.267 22.5506 30.8004 22.9179 30.3917 23.2395C29.9818 23.5622 29.6301 23.839 29.3638 23.6568C29.1884 23.5369 29.0644 23.2859 28.9593 23.0733C28.9265 23.007 28.8956 22.9445 28.8655 22.8908L28.8133 22.7973C28.2536 21.794 27.3515 20.177 25.8294 20.1136C25.232 20.0886 24.7504 20.2419 24.3102 20.5634C23.7198 20.9947 23.3048 21.6068 22.8919 22.2158C22.1358 23.3309 21.3866 24.4359 19.5799 24.4028C19.455 24.4005 19.3318 24.3945 19.2061 24.3877L19.1196 24.3829C18.8448 24.3676 18.5693 24.3523 18.297 24.3696C17.345 24.4301 16.3928 24.8832 15.7068 25.3969C15.2332 25.7516 14.8131 26.1629 14.4408 26.5876C13.9086 27.168 13.4128 27.7462 13.0932 28.4235L36.2951 28.4023L42.0632 28.4092ZM25.0676 19.9362L25.1678 19.6476C26.0309 17.1657 27.2894 13.5465 25.6787 11.2395C25.1497 10.4819 24.307 9.93669 23.2604 9.70586C22.597 9.55954 21.9394 9.55639 21.258 9.58993C19.9091 9.7015 18.5014 9.99597 17.6093 10.8794C15.7548 12.7158 16.3791 17.2179 16.7011 19.4656L16.7039 19.4854C16.9322 21.0789 17.164 22.6976 17.5123 24.2764C18.0019 24.154 18.5063 24.1717 19.0047 24.1892C19.705 24.2138 20.3935 24.2379 21.013 23.8727L20.9953 21.1407C20.8963 21.0549 20.7774 20.9555 20.6459 20.8456C19.8124 20.1488 18.4725 19.0288 18.4844 18.2822C18.4886 18.026 18.5935 17.8209 18.8144 17.6385C19.0619 17.6407 19.2109 17.7413 19.3812 17.8796C19.9268 18.3228 20.4496 18.8909 20.8883 19.4023L20.8504 15.6606C20.8481 15.5638 20.839 15.452 20.8292 15.3318C20.7887 14.8367 20.7367 14.2006 21.1031 13.9002C21.2694 13.7638 21.4749 13.698 21.7101 13.6944C21.9091 13.7483 22.0045 13.8224 22.0967 13.9698C22.4066 14.4645 22.36 15.2407 22.3201 15.9054C22.3069 16.1253 22.2944 16.333 22.2958 16.5143C22.356 16.4541 22.4268 16.378 22.505 16.2938C22.8658 15.9052 23.3934 15.337 23.8614 15.2909C24.0631 15.2711 24.277 15.3026 24.4313 15.4133C24.4962 15.46 24.5087 15.5018 24.5253 15.5576C24.5296 15.5718 24.5341 15.5868 24.5398 15.6031C24.4318 16.0309 23.8188 16.5745 23.236 17.0915C22.8558 17.4288 22.4884 17.7547 22.2822 18.0297C22.2631 19.5739 22.2763 21.1183 22.3216 22.6622C23.0284 21.5165 23.6561 20.6035 25.0676 19.9362ZM56.1808 7.78684L56.1752 7.74829C56.1046 7.26582 56.0332 6.77784 55.8014 6.33597C55.5982 5.94289 55.2699 5.59947 54.8493 5.34008C54.3557 5.03536 53.8189 4.89888 53.2173 4.80199C52.0742 6.7591 49.9499 8.66427 47.5579 9.6938C47.5514 9.7502 47.5454 9.80725 47.5393 9.86468C47.5115 10.1269 47.4829 10.397 47.4116 10.6493C47.3426 10.8933 47.2698 11.0894 47.1982 11.2758L47.1678 11.3545C47.0222 11.7312 46.8919 12.0685 46.8443 12.6324C47.3165 12.2653 47.745 11.8665 48.1735 11.4678L48.2119 11.432L48.2209 11.4236C48.4582 11.2029 48.696 10.9824 48.9419 10.7676C49.2669 10.4836 49.6015 10.2047 49.9364 9.9256C50.5379 9.42422 51.1402 8.92211 51.6897 8.38835L51.7322 8.42801C52.3315 8.98645 53.0031 9.61237 53.7508 10.0368C53.7332 9.91355 53.7048 9.77419 53.6749 9.62768C53.5924 9.2241 53.4989 8.76622 53.5916 8.44104L53.6649 8.37143C53.9061 8.89419 54.0514 10.0663 54.0735 10.6597L55.8324 10.6343C55.6611 10.7522 55.3154 10.7473 54.9628 10.7423C54.6455 10.7379 54.3226 10.7333 54.1163 10.8182C54.0934 10.9196 54.1012 10.9334 54.1372 10.997L54.1468 11.014L54.1535 11.0261L54.1619 11.0418C54.3594 11.1554 54.5065 11.18 54.7496 11.1839C55.1907 11.1911 56.5136 11.1565 56.8055 10.9359C56.8501 10.7967 56.805 10.66 56.7601 10.5239C56.751 10.4964 56.7419 10.4689 56.7336 10.4414C56.664 10.0002 56.5597 9.56578 56.4553 9.13091C56.3937 8.87433 56.3321 8.61745 56.2775 8.35907C56.2432 8.19662 56.217 8.03088 56.1922 7.86399L56.1808 7.78684ZM48.9835 2.61734L48.9886 2.63116L48.9901 2.63571C48.9911 2.63886 48.9919 2.64164 48.9923 2.64418C48.993 2.64788 48.9931 2.65106 48.9925 2.65417C48.9912 2.66035 48.9873 2.66619 48.9801 2.67502L48.9718 2.68497C48.9627 2.69573 48.9504 2.71028 48.9344 2.73158L48.8924 2.71204C48.8134 2.67547 48.7297 2.63678 48.6636 2.58915C48.5231 2.48803 48.4947 2.40693 48.4758 2.26244C48.5458 2.10485 48.6689 2.03622 48.8243 1.94954L48.8776 1.91965C48.9252 1.94186 48.9494 1.96848 48.9789 2.00101L48.9967 2.02048L48.9596 2.04398C48.8552 2.10978 48.8334 2.12352 48.7944 2.2442C48.8646 2.35159 48.9276 2.44824 48.9654 2.56617C48.9727 2.58887 48.9788 2.60512 48.9835 2.61734ZM54.4254 11.3581C54.4324 11.4044 54.4393 11.4616 54.4471 11.5311L54.4537 11.59L54.4592 11.6404C54.5062 12.0725 54.5782 12.7335 54.752 12.9347L56.834 12.8562C56.8293 12.7526 56.8278 12.6355 56.8263 12.5114C56.821 12.082 56.8146 11.568 56.6678 11.23L56.5259 11.2117C56.3439 11.2224 56.1605 11.2313 55.9765 11.2402C55.4571 11.2654 54.9334 11.2907 54.4254 11.3581ZM46.3297 13.0767L46.1106 13.0779C45.7304 13.0798 45.3496 13.0817 44.97 13.0935L44.3999 13.1118C44.3812 13.2295 44.3573 13.3534 44.3326 13.4812C44.2009 14.1628 44.0479 14.9549 44.5531 15.5087C44.8187 15.7997 45.252 16.026 45.6698 16.1489C45.8019 16.0389 45.8396 15.9468 45.8901 15.8232C45.9 15.799 45.9104 15.7735 45.9221 15.7465C46.1644 15.1868 46.2663 14.5569 46.366 13.941L46.3733 13.8957L46.3749 13.8861C46.4196 13.6101 46.4647 13.3374 46.5227 13.0753L46.3297 13.0767ZM21.1029 17.3573L21.1023 17.4643C21.097 18.3155 21.0917 19.1726 21.1684 20.0143C20.4642 19.2435 19.7163 18.4992 18.9272 17.7835L18.9022 17.8616C18.7567 18.3152 18.6824 18.5467 19.0238 18.9974C19.4746 19.5928 20.139 20.1535 20.767 20.6834L20.8537 20.7566L20.863 20.7645C21.0012 20.8811 21.1369 20.9963 21.2675 21.1101L21.2475 23.1291C21.2465 23.1561 21.2447 23.1833 21.2429 23.2103C21.2337 23.3475 21.2246 23.4837 21.3247 23.6023C21.4664 23.602 21.4701 23.5989 21.559 23.5252L21.5688 23.5171C21.765 23.3547 21.9378 23.1177 22.0758 22.9201C22.095 21.1998 22.0918 19.4793 22.066 17.759C22.5052 17.5318 24.1417 16.0653 24.2277 15.6884C24.238 15.6434 24.2321 15.6166 24.2239 15.5792L24.2198 15.5601C24.1049 15.4797 24.061 15.4711 23.9053 15.4791C23.6193 15.4939 23.3462 15.7929 23.069 16.0963C22.7909 16.4008 22.5087 16.7097 22.2054 16.7402C22.0726 16.6591 22.0507 16.5947 22.0286 16.4614C21.996 16.2641 22.0171 15.9845 22.0399 15.6829C22.0859 15.0727 22.1387 14.373 21.7666 14.0855C21.6635 14.0058 21.5266 13.9661 21.3882 13.9497C21.271 14.0593 21.1842 14.1429 21.1499 14.2874C21.0305 14.7891 21.0574 15.3611 21.0832 15.9072C21.0929 16.1129 21.1024 16.315 21.1039 16.5082C21.106 16.7899 21.1046 17.0732 21.1029 17.3573ZM55.2372 15.8137C55.298 15.8358 55.3315 15.8474 55.3567 15.8476C55.374 15.8478 55.3914 15.8439 55.42 15.8376C55.4352 15.8343 55.4536 15.8302 55.4769 15.8256C56.252 15.3031 56.8202 14.7902 56.9293 13.9419C56.9663 13.6529 56.9433 13.3475 56.906 13.0589L56.2325 13.0868C55.7245 13.1133 55.2168 13.1426 54.7093 13.1747C54.7334 13.3349 54.7556 13.5332 54.78 13.7503C54.8595 14.4606 54.9617 15.3723 55.2264 15.8097L55.2372 15.8137ZM52.9553 24.8336C52.835 24.8342 52.7146 24.8347 52.5943 24.8355L52.5894 24.9586C52.5733 25.3514 52.5574 25.7431 52.5865 26.136C53.3462 26.1378 54.1058 26.1333 54.8655 26.1222C54.8714 25.6807 54.8734 25.2391 54.8717 24.7976C54.2387 24.8275 53.6042 24.8305 52.9701 24.8335L52.9553 24.8336ZM51.8679 5.96059L51.8613 5.96985C51.736 6.14491 51.6503 6.26459 51.3943 6.3282C51.1436 6.39046 50.8991 6.35212 50.6744 6.24902C50.0421 5.95882 49.6048 5.40204 49.4388 4.84444C49.4213 4.78559 49.4048 4.72661 49.389 4.66749C48.9481 4.71869 48.5199 4.77384 48.0899 4.86791C48.1599 6.47033 47.911 7.93074 47.5639 9.50218C49.2794 8.59456 50.7917 7.46132 52.0368 6.15007C52.407 5.71298 52.6853 5.23839 52.9614 4.76032C52.6858 4.73586 52.4083 4.72362 52.1312 4.71141C52.05 4.70783 51.9688 4.70425 51.8878 4.70036C51.9058 5.12407 51.9144 5.53787 51.8679 5.96059ZM50.0339 4.02821L50.0264 4.05353C49.8748 4.56117 49.7289 5.04995 50.0822 5.53518C50.2779 5.80394 50.6453 6.00771 51.0232 6.0728C51.1868 6.10096 51.3566 6.11436 51.5234 6.12354C51.8331 5.75861 51.7377 5.11335 51.6576 4.57192C51.6308 4.39056 51.6056 4.22084 51.5981 4.07722C51.0505 4.11712 50.576 4.13024 50.0339 4.02821ZM45.437 10.829C45.0655 10.8384 44.6664 10.8486 44.3452 10.9329L44.2396 11.0381L44.2778 11.1268C44.5335 11.2234 44.8815 11.2148 45.195 11.2071C45.2846 11.2049 45.3714 11.2027 45.4524 11.2031C45.5214 11.2066 45.5971 11.2116 45.6772 11.217C46.1524 11.2489 46.784 11.2912 47.1171 11.0644L47.1123 10.8939C46.69 10.7221 46.2605 10.7524 45.8047 10.8165C45.6882 10.8226 45.5642 10.8257 45.437 10.829ZM44.4947 11.6125C44.4615 12.0468 44.4282 12.4813 44.4225 12.9163C44.5944 12.9169 44.7697 12.92 44.9465 12.9233C45.4867 12.9331 46.0415 12.9432 46.5606 12.8783C46.6185 12.5995 46.6553 12.3202 46.692 12.041C46.7205 11.8248 46.749 11.6086 46.7872 11.3927C46.0272 11.3616 45.2746 11.3525 44.5137 11.3614C44.5075 11.4448 44.5011 11.5291 44.4947 11.6125Z"
        fill="black" />
    <path
        d="M48.9886 2.63116L48.9835 2.61734C48.9788 2.60512 48.9727 2.58887 48.9654 2.56617C48.9276 2.44824 48.8646 2.35159 48.7944 2.2442C48.8334 2.12352 48.8552 2.10978 48.9596 2.04398L48.9967 2.02048L48.9789 2.00101C48.9494 1.96848 48.9252 1.94186 48.8776 1.91965L48.8243 1.94954C48.6689 2.03622 48.5458 2.10485 48.4758 2.26244C48.4947 2.40693 48.5231 2.48803 48.6636 2.58915C48.7297 2.63678 48.8134 2.67547 48.8924 2.71204L48.9344 2.73158C48.9504 2.71028 48.9627 2.69573 48.9718 2.68497L48.9801 2.67502C48.9873 2.66619 48.9912 2.66035 48.9925 2.65417C48.9931 2.65106 48.993 2.64788 48.9923 2.64418C48.9919 2.64164 48.9911 2.63886 48.9901 2.63571L48.9886 2.63116Z"
        fill="#8D6457" />
    <path
        d="M49.389 4.66749C49.4048 4.72661 49.4213 4.78559 49.4388 4.84444C49.6048 5.40204 50.0421 5.95882 50.6744 6.24902C50.8991 6.35212 51.1436 6.39046 51.3943 6.3282C51.6548 6.26348 51.7389 6.14069 51.8679 5.96059C51.9144 5.53787 51.9058 5.12407 51.8878 4.70036C52.2454 4.7175 52.6051 4.72869 52.9614 4.76032C52.6853 5.23839 52.407 5.71298 52.0368 6.15007C50.7917 7.46132 49.2794 8.59456 47.5639 9.50218C47.911 7.93074 48.1599 6.47033 48.0899 4.86791C48.5199 4.77384 48.9481 4.71869 49.389 4.66749Z"
        fill="#DBA17B" />
    <path
        d="M53.2173 4.80199C53.8189 4.89888 54.3557 5.03536 54.8493 5.34008C55.2699 5.59947 55.5982 5.94289 55.8014 6.33597C56.1321 6.96645 56.1363 7.6907 56.2775 8.35907C56.4246 9.05541 56.6229 9.7398 56.7336 10.4414L56.6733 10.5552C56.4023 10.6 56.0779 10.5522 55.8324 10.6343L54.0735 10.6597C54.0514 10.0663 53.9061 8.89419 53.6649 8.37143L53.5916 8.44104C53.4652 8.88426 53.6849 9.57403 53.7508 10.0368C52.9854 9.6023 52.2996 8.95661 51.6897 8.38835C50.8344 9.21926 49.8507 9.97347 48.9419 10.7676C48.2355 11.3848 47.5954 12.0484 46.8443 12.6324C46.9181 11.757 47.1915 11.4277 47.4116 10.6493C47.4985 10.3417 47.522 10.0077 47.5579 9.6938C49.9499 8.66427 52.0742 6.7591 53.2173 4.80199Z"
        fill="#8D6457" />
    <path
        d="M44.6809 10.7377L44.5415 10.7277L44.4775 10.6461C44.5576 9.60964 44.9569 7.37049 45.4683 6.43931C45.8794 5.69067 46.7849 5.28655 47.6889 5.00424C47.7859 5.02196 47.7319 5.00331 47.8313 5.08763C48.1944 6.26928 47.3549 9.34577 47.0773 10.6974C46.2808 10.7342 45.4787 10.7297 44.6809 10.7377Z"
        fill="#8D6457" />
    <path
        d="M45.8299 16.3346L45.9389 16.2334C46.1228 16.4869 46.3254 17.5938 46.3391 17.9155L46.3702 17.9183L46.247 18.0615C45.9687 17.8291 46.0737 17.3438 45.9458 17.0482C45.819 17.2883 45.8286 17.4915 45.8305 17.7463C45.8633 17.93 45.9288 18.1813 46.1086 18.3106C46.228 18.3965 46.3032 18.3775 46.4458 18.3623C46.7051 18.2188 46.814 18.0274 46.8685 17.7823C47.0127 17.1339 46.6883 16.4673 46.2427 15.942C46.3765 14.933 46.5675 13.9319 46.7535 12.9285C48.4408 11.5623 50.0117 10.1023 51.6927 8.7273C52.219 9.17833 53.3742 9.90264 53.6975 10.3772C54.3755 11.3727 54.7269 15.7853 55.0896 16.0556C55.2349 16.0384 55.35 16.0246 55.4969 16.0416C55.5721 16.1124 55.5837 16.1484 55.599 16.2417C55.8001 17.463 55.7911 18.7559 55.885 19.989C56.0025 21.5332 56.2069 23.0704 56.2816 24.6172C54.6419 24.5774 53.0129 24.5957 51.3732 24.6252C51.3334 21.9876 51.2596 19.3503 51.1519 16.7139C51.1124 15.3418 51.0284 13.9904 51.1016 12.6174C51.4453 12.2667 51.862 12.007 52.1657 11.6216L52.1207 11.5921C51.6895 11.8077 51.3498 12.088 50.9963 12.3761L51.0258 12.3831L50.8819 12.4759C50.916 13.6913 50.6089 14.9919 50.4182 16.1984C50.1695 17.7722 49.9296 19.3484 49.6542 20.9195C49.4375 22.1559 49.1814 23.3838 49.0111 24.6255C47.3554 24.5931 45.6961 24.6174 44.0396 24.6015C44.1279 23.8362 44.3571 23.0532 44.4925 22.2877C44.7726 20.7052 45.0035 19.1156 45.3182 17.5374L45.3293 17.3777C45.4211 17.0023 45.6476 16.6845 45.8299 16.3346Z"
        fill="#DBA17B" />
    <path
        d="M17.5123 24.2764C17.1626 22.691 16.9303 21.0655 16.7011 19.4656C16.3791 17.2179 15.7548 12.7158 17.6093 10.8794C18.5014 9.99597 19.9091 9.7015 21.258 9.58993C21.9394 9.55639 22.597 9.55954 23.2604 9.70586C24.307 9.93669 25.1497 10.4819 25.6787 11.2395C27.353 13.6376 25.9269 17.4537 25.0676 19.9362C23.6561 20.6035 23.0284 21.5165 22.3216 22.6622C22.2763 21.1183 22.2631 19.5739 22.2822 18.0297C22.8045 17.333 24.3613 16.3099 24.5398 15.6031C24.5116 15.5227 24.5126 15.4718 24.4313 15.4133C24.277 15.3026 24.0631 15.2711 23.8614 15.2909C23.2917 15.3471 22.6338 16.1767 22.2958 16.5143C22.2901 15.7851 22.5091 14.6281 22.0967 13.9698C22.0045 13.8224 21.9091 13.7483 21.7101 13.6944C21.4749 13.698 21.2694 13.7638 21.1031 13.9002C20.6478 14.2736 20.8386 15.1652 20.8504 15.6606L20.8883 19.4023C20.4496 18.8909 19.9268 18.3228 19.3812 17.8796C19.2109 17.7413 19.0619 17.6407 18.8144 17.6385C18.5935 17.8209 18.4886 18.026 18.4844 18.2822C18.4707 19.1466 20.2689 20.5116 20.9953 21.1407L21.013 23.8727C19.9526 24.498 18.6897 23.982 17.5123 24.2764Z"
        fill="#B5CFF8" />
    <path
        d="M56.7336 10.4414C56.7831 10.6049 56.8592 10.7685 56.8055 10.9359C56.5136 11.1565 55.1907 11.1911 54.7496 11.1839C54.5065 11.18 54.3594 11.1554 54.1619 11.0418C54.1054 10.9352 54.0889 10.9398 54.1163 10.8182C54.5518 10.639 55.5069 10.8584 55.8324 10.6343C56.0779 10.5522 56.4023 10.6 56.6733 10.5552L56.7336 10.4414Z"
        fill="#5A493B" />
    <path
        d="M45.4524 11.2031C45.0879 11.2013 44.6066 11.251 44.2778 11.1268L44.2396 11.0381L44.3452 10.9329C44.7764 10.8197 45.348 10.8402 45.8047 10.8165C46.2605 10.7524 46.69 10.7221 47.1123 10.8939L47.1171 11.0644C46.7279 11.3295 45.9309 11.2269 45.4524 11.2031Z"
        fill="#5A493B" />
    <path
        d="M54.4254 11.3581C55.1133 11.2669 55.8303 11.2527 56.5259 11.2117L56.6678 11.23C56.857 11.6657 56.8129 12.3939 56.834 12.8562L54.752 12.9347C54.5314 12.6793 54.4756 11.6903 54.4254 11.3581Z"
        fill="#8D6457" />
    <path
        d="M44.4225 12.9163C44.4293 12.3974 44.4753 11.8793 44.5137 11.3614C45.2746 11.3525 46.0272 11.3616 46.7872 11.3927C46.6996 11.8875 46.6633 12.3837 46.5606 12.8783C45.8716 12.9645 45.1196 12.9185 44.4225 12.9163Z"
        fill="#8D6457" />
    <path
        d="M44.3999 13.1118L44.97 13.0935C45.4869 13.0774 46.0056 13.0797 46.5227 13.0753C46.3315 13.939 46.2804 14.9188 45.9221 15.7465C45.8507 15.9114 45.8279 16.0174 45.6698 16.1489C45.252 16.026 44.8187 15.7997 44.5531 15.5087C43.9532 14.851 44.2814 13.8575 44.3999 13.1118Z"
        fill="#5A493B" />
    <path
        d="M54.7093 13.1747C55.2168 13.1426 55.7245 13.1133 56.2325 13.0868L56.906 13.0589C56.9433 13.3475 56.9663 13.6529 56.9293 13.9419C56.8202 14.7902 56.252 15.3031 55.4769 15.8256C55.3393 15.8525 55.3719 15.8626 55.2264 15.8097C54.8808 15.2385 54.8123 13.8589 54.7093 13.1747Z"
        fill="#5A493B" />
    <path
        d="M21.1684 20.0143C21.0628 18.8564 21.1126 17.6692 21.1039 16.5082C21.0986 15.8023 20.9855 14.9781 21.1499 14.2874C21.1842 14.1429 21.271 14.0593 21.3882 13.9497C21.5266 13.9661 21.6635 14.0058 21.7666 14.0855C22.3226 14.515 21.93 15.865 22.0286 16.4614C22.0507 16.5947 22.0726 16.6591 22.2054 16.7402C22.8109 16.6793 23.3323 15.5088 23.9053 15.4791C24.061 15.4711 24.1049 15.4797 24.2198 15.5601C24.2298 15.6084 24.2396 15.6362 24.2277 15.6884C24.1417 16.0653 22.5052 17.5318 22.066 17.759C22.0918 19.4793 22.095 21.1998 22.0758 22.9201C21.9378 23.1177 21.765 23.3547 21.5688 23.5171C21.4702 23.5987 21.4714 23.602 21.3247 23.6023C21.2048 23.4602 21.2416 23.293 21.2475 23.1291L21.2675 21.1101C20.5173 20.4567 19.5976 19.7552 19.0238 18.9974C18.6633 18.5216 18.7663 18.29 18.9272 17.7835C19.7163 18.4992 20.4642 19.2435 21.1684 20.0143Z"
        fill="#8D6457" />
    <path
        d="M45.3681 16.2993L45.8287 16.3342C45.6464 16.6841 45.4199 17.0019 45.3282 17.3773C45.3235 17.1894 45.3312 17.0423 45.2152 16.8752C45.2382 16.6842 45.3145 16.4869 45.3681 16.2993Z"
        fill="#433332" />
    <path
        d="M44.3837 25.6887C43.8253 25.9865 42.7408 26.6049 42.0622 26.4881C41.2297 26.3449 41.027 25.5563 40.0003 26.0464C39.7445 26.1684 39.5053 26.3267 39.2683 26.4711C39.0683 26.388 38.8862 26.3027 38.7019 26.1987C38.4535 26.0583 38.2563 26.009 37.9522 26.0552C37.2028 26.1688 36.6634 26.7391 35.8992 26.8397C34.9623 26.9631 34.1935 26.2493 33.2699 26.2585C31.5852 26.2751 31.3526 27.4083 29.327 26.3581C28.45 25.9034 27.7009 25.4048 26.5763 25.5785C25.2483 25.7836 24.3462 26.7563 23.0369 26.9938C22.1327 27.1579 21.2223 26.4832 20.3118 26.4512C18.8958 26.4015 16.822 27.8555 15.1618 27.0274C14.9048 26.8992 14.7078 26.7034 14.4408 26.5876C14.8131 26.1629 15.2332 25.7516 15.7068 25.3969C16.3928 24.8832 17.345 24.4301 18.297 24.3696C18.7218 24.3426 19.1544 24.395 19.5799 24.4028C22.3733 24.454 22.6387 21.7845 24.3102 20.5634C24.7504 20.2419 25.232 20.0886 25.8294 20.1136C27.3998 20.179 28.3101 21.898 28.8655 22.8908C28.992 23.1166 29.1337 23.4995 29.3638 23.6568C29.8958 24.0206 30.7681 22.5537 31.7645 22.5476C33.0191 22.5397 33.4383 24.0472 34.1829 24.6364C34.4111 24.8169 34.7239 24.9629 35.0539 24.9542C35.7293 24.9363 36.4657 24.1441 36.9259 23.7857C37.6823 23.1967 38.5962 22.5805 39.7167 22.6178C41.6889 22.6834 43.2058 24.6212 44.3837 25.6887Z"
        fill="#F3C575" />
    <path
        d="M73.4853 16.9437C73.467 15.693 73.6521 13.9138 74.0203 12.6876C74.4699 13.9826 74.4625 16.7029 74.6459 18.1786L74.4735 18.225L74.3889 18.4946C74.3293 18.0036 74.4032 15.9498 74.0609 15.6815L73.8924 15.7589C73.5422 16.3681 73.8676 17.2286 73.685 17.9111C73.6731 17.9552 73.6594 17.999 73.6464 18.043C73.6097 17.7015 73.708 17.2419 73.4853 16.9437Z"
        fill="#433332" />
    <path
        d="M78.6876 18.1513L78.5335 18.1037C78.1682 18.4972 78.0261 19.2908 77.8634 19.7726C77.754 19.513 77.8507 19.0649 78.0003 18.8128C78.0515 18.7264 78.1195 18.6477 78.163 18.5576C78.3208 18.2304 78.4775 17.5988 78.3138 17.2778C77.6559 17.5955 78.048 18.461 77.6406 18.9098C77.6179 18.9349 77.5927 18.9586 77.5687 18.983C77.5601 18.8251 77.4913 18.7283 77.4009 18.5901C77.7057 17.6037 79.1553 15.0386 79.7875 14.0438C79.5962 15.398 79.2019 16.8511 78.6876 18.1513Z"
        fill="url(#paint0_linear_1769_80551)" />
    <path
        d="M68.7971 15.1737C69.2634 15.8037 69.6035 16.5042 69.9161 17.1908C70.3662 17.9789 70.9974 18.8681 71.2709 19.7042L71.0724 19.9788C70.9665 19.8022 70.8745 19.6728 70.713 19.5221C70.7116 19.4958 70.7108 19.4696 70.709 19.4434C70.6775 18.9776 70.5398 18.4652 70.287 18.044L70.1384 17.966C69.9835 18.0659 69.9554 18.1287 69.902 18.2808C70.0081 18.7667 70.1651 19.2394 70.3218 19.7162L70.529 19.6595L70.4598 19.6146L70.5209 19.648C70.6258 20.1566 70.8181 20.7109 70.8505 21.2195C70.7687 21.1899 70.6823 21.2106 70.5938 21.2164C70.2029 20.0753 69.922 18.9034 69.5714 17.7527C69.2508 16.9157 68.9828 16.0362 68.7971 15.1737Z"
        fill="#433332" />
    <path
        d="M73.6464 18.043C73.6594 17.999 73.6731 17.9552 73.685 17.9111C73.8676 17.2286 73.5422 16.3681 73.8924 15.7589L74.0609 15.6815C74.4032 15.9498 74.3293 18.0036 74.3889 18.4946C74.4851 19.703 74.6163 20.9081 74.7304 22.1154C74.7941 22.7877 74.8119 23.4741 74.926 24.1418C75.5078 22.9529 76.1001 21.7671 76.7028 20.5848C76.9598 20.0798 77.1959 19.4316 77.5692 18.984C77.5932 18.9597 77.6183 18.9359 77.6411 18.9109C78.0485 18.462 77.6564 17.5965 78.3142 17.2789C78.478 17.5999 78.3213 18.2315 78.1634 18.5587C78.12 18.6488 78.0519 18.7274 78.0008 18.8138C77.8512 19.066 77.7545 19.514 77.8639 19.7736C77.2328 21.9744 76.4685 24.1757 75.9774 26.3982C74.6981 26.4209 73.425 26.4339 72.1457 26.4039C71.9213 24.6725 71.2502 22.9353 70.8523 21.2199C70.8199 20.7114 70.6275 20.1571 70.5226 19.6485L70.4616 19.615L70.5307 19.66L70.3235 19.7167C70.1668 19.2399 70.0098 18.7671 69.9037 18.2812C69.9571 18.1292 69.9852 18.0664 70.1401 17.9665L70.2887 18.0444C70.5415 18.4656 70.6792 18.9781 70.7108 19.4439C70.7125 19.47 70.7134 19.4963 70.7147 19.5226C70.8762 19.6732 70.9683 19.8026 71.0741 19.9793C71.7902 21.277 72.1529 22.2053 73.1746 23.4212C73.2134 21.6348 73.5106 19.8294 73.6464 18.043Z"
        fill="#F3C575" />
    <path
        d="M73.4853 16.9437C73.708 17.2419 73.6097 17.7015 73.6464 18.043C73.5106 19.8294 73.2134 21.6348 73.1746 23.4212C72.1529 22.2053 71.7902 21.277 71.0741 19.9793L71.2727 19.7042C71.7794 20.6988 72.3356 21.6767 72.9396 22.6356C72.9989 20.7759 73.1522 18.7816 73.4853 16.9437Z"
        fill="black" />
    <path
        d="M77.8639 19.7736C78.0266 19.2919 78.1682 18.4972 78.5335 18.1037L78.6876 18.1513L77.147 23.2447C76.8319 24.2703 76.4442 25.3007 76.2529 26.3457L83.0732 26.3898C84.3689 26.3962 85.7121 26.3446 87.0001 26.4504L86.9973 26.4824C85.4902 26.6009 83.9515 26.5586 82.4383 26.554L75.7577 26.5292C74.0226 26.5224 68.8546 26.6652 67.5991 26.376C68.4762 26.1349 70.7346 26.3185 71.7719 26.3197C70.8237 24.7777 69.4011 23.4297 68.1008 22.0715C67.6632 21.6144 66.9173 21.0039 66.6624 20.4756L66.7058 20.3756C67.5571 20.7903 70.8619 24.5654 71.7066 25.4753C71.3414 24.0601 70.8652 22.6439 70.5951 21.2161C70.6837 21.2103 70.7704 21.1904 70.8523 21.2199C71.2502 22.9353 71.9213 24.6725 72.1457 26.4039C73.425 26.4339 74.6981 26.4209 75.9774 26.3982C76.4685 24.1757 77.2328 21.9744 77.8639 19.7736Z"
        fill="black" />
    <path
        d="M74.3889 18.4946L74.4735 18.225L74.6459 18.1786C74.8073 19.8558 74.848 21.5829 75.1063 23.2484C75.786 21.669 76.6584 20.1506 77.4009 18.5901C77.4913 18.7283 77.5606 18.8261 77.5692 18.984C77.1959 19.4316 76.9598 20.0798 76.7028 20.5848C76.1001 21.7671 75.5078 22.9529 74.926 24.1418C74.8119 23.4741 74.7941 22.7877 74.7304 22.1154C74.6163 20.9081 74.4851 19.703 74.3889 18.4946Z"
        fill="black" />
    <path
        d="M0.228288 28.4664C0.320133 28.1236 0.416401 27.7815 0.516964 27.4403C0.795911 26.5093 1.1125 25.3117 2.19532 24.7778C2.45431 24.755 2.69245 24.7384 2.92844 24.8452C3.80116 25.2401 3.9251 26.3564 4.14239 27.0628C4.54174 26.7665 4.87046 26.4666 5.43568 26.3934C6.4993 26.2557 6.22894 27.3448 6.78936 27.6796C7.38882 27.602 7.30911 26.7311 7.9212 26.5662C8.80403 26.3283 8.94817 27.5116 9.48333 27.718C9.73309 27.6271 10.3948 26.1767 10.7521 25.8386C10.895 25.7033 11.0935 25.556 11.3317 25.5631C11.5756 25.5703 11.7522 25.7123 11.9086 25.8445C11.9319 25.8642 11.9548 25.8846 11.9782 25.9044C12.1836 26.0789 12.2986 26.268 12.43 26.4806C12.7056 27.1299 12.7688 27.7823 12.8513 28.4608C11.1729 28.4067 9.48636 28.4637 7.80724 28.481C5.28093 28.4938 2.75448 28.4889 0.228288 28.4664Z"
        fill="#B5CFF8" />
    <path
        d="M43.763 24.8219C44.2808 24.7724 44.8182 24.7861 45.3388 24.8015L45.3374 26.1359C44.9678 26.0416 44.0324 25.1094 43.763 24.8219Z"
        fill="#FBF6EB" />
    <path
        d="M47.7118 26.1318C47.1556 26.1354 46.6105 26.1767 46.0569 26.1918C45.8233 26.1982 45.7238 26.1697 45.557 26.0413C45.4 25.6568 45.5343 25.2155 45.5964 24.8235C46.3688 24.7948 47.1523 24.8147 47.926 24.8154C47.8581 25.122 47.9174 25.9233 47.7118 26.1318Z"
        fill="#433332" />
    <path
        d="M52.5865 26.136C52.5543 25.702 52.5772 25.2696 52.5943 24.8355C53.3535 24.8306 54.1137 24.8334 54.8717 24.7976C54.8734 25.2391 54.8714 25.6807 54.8655 26.1222C54.1058 26.1333 53.3462 26.1378 52.5865 26.136Z"
        fill="#433332" />
    <path
        d="M46.955 27.3121C46.434 27.03 45.9805 26.6707 45.5176 26.3313C46.3689 26.3264 47.2203 26.329 48.0716 26.3392C47.8281 26.504 47.6296 26.6756 47.427 26.8707C47.2757 27.0217 47.1138 27.166 46.955 27.3121Z"
        fill="#DBA17B" />
    <path
        d="M52.3342 26.4078C53.2689 26.3786 54.3171 26.2881 55.2433 26.3933L55.4349 26.4537C54.7006 26.5627 54.2723 27.0962 53.7268 27.461C53.2769 27.177 52.8622 26.7742 52.3506 26.5754L52.2556 26.5703L52.3342 26.4078Z"
        fill="#DBA17B" />
    <path
        d="M55.4338 26.4533C55.92 26.4526 56.3429 26.5548 56.6848 26.8409C56.9504 27.0631 57.1194 27.3523 57.2951 27.6229C57.6266 27.7792 57.9579 27.9468 58.05 28.2683C58.0993 28.4399 58.1473 28.707 58.0264 28.8608C57.5695 28.9484 52.6032 28.9658 52.2573 28.8568L52.2232 28.7144C52.7098 28.6301 53.3953 28.6981 53.9065 28.6999L57.9248 28.7151C57.878 28.4824 57.805 28.2593 57.7297 28.0318C57.4849 27.9098 57.232 27.8081 57.0665 27.6136C56.9789 27.4496 56.8926 27.2875 56.7563 27.145C56.5212 26.8996 56.1973 26.6881 55.8015 26.6548C55.3406 26.6161 55.0686 26.7805 54.7264 26.9985L53.6509 27.7091C53.2341 27.3934 52.835 27.0411 52.3931 26.7505L52.3105 26.6968L52.3496 26.575C52.8612 26.7738 53.2759 27.1766 53.7258 27.4606C54.2713 27.0958 54.6996 26.5623 55.4338 26.4533Z"
        fill="black" />
    <path
        d="M47.0454 27.574C47.4656 27.194 47.7232 26.5964 48.4002 26.4913C48.8585 26.636 49.4388 26.8431 49.6368 27.2338C49.7089 27.3764 49.7165 27.5117 49.6187 27.6474C49.5707 27.714 49.4854 27.7791 49.4204 27.8363L49.3552 27.812C49.3146 27.734 49.2608 27.6956 49.1755 27.6487C48.9465 27.5229 48.7236 27.5297 48.4596 27.5644C48.3648 27.5769 48.3027 27.4614 48.167 27.4315L48.087 27.5062C48.0746 27.4809 48.0549 27.4573 48.0497 27.4305C48.0444 27.4037 48.054 27.3763 48.0562 27.3492L47.9335 27.3929L47.9863 27.3446L47.7996 27.5725L47.636 27.5203C47.5385 27.5669 47.4811 27.6058 47.4104 27.6769C47.2792 27.5917 47.2057 27.5968 47.0454 27.574Z"
        fill="#9E84A4" />
    <path
        d="M52.2243 28.7152C52.1686 28.2386 52.0951 26.9902 52.2556 26.5703L52.3506 26.5754L52.3116 26.6976L52.3942 26.7513C52.8361 27.0419 53.2352 27.3941 53.652 27.7099L54.7275 26.9992C54.7855 27.1079 54.8459 27.164 54.8125 27.2828C54.7313 27.4419 54.6175 27.6071 54.6502 27.7823C54.7932 27.8487 54.8278 27.8294 54.9941 27.7984C55.0155 27.7944 55.0365 27.7884 55.0577 27.7834C55.0382 27.8444 55.0267 27.9106 55.0123 27.9726L55.0977 28.0368C55.4965 28.0057 55.736 27.8363 56.0409 27.6479L56.1371 27.6754C56.1349 27.7777 56.0174 27.8737 55.9459 27.9586L55.9927 27.9875L55.954 27.9472L56.018 27.9803L55.9384 27.9898L55.978 27.9189C56.2568 27.9953 56.5696 27.7704 56.8406 27.7044C56.9289 27.6829 56.99 27.6536 57.0676 27.6143C57.2331 27.8089 57.486 27.9105 57.7309 28.0325C57.8062 28.26 57.8792 28.4831 57.9259 28.7159L53.9076 28.7007C53.3964 28.6988 52.7109 28.6308 52.2243 28.7152Z"
        fill="#8D6457" />
    <path
        d="M54.7275 26.9992C55.0697 26.7813 55.3417 26.6168 55.8026 26.6555C56.1984 26.6889 56.5223 26.9003 56.7574 27.1458C56.8937 27.2882 56.9801 27.4503 57.0676 27.6143C56.99 27.6536 56.9289 27.6829 56.8406 27.7044C56.5696 27.7704 56.2568 27.9953 55.978 27.9189L55.9384 27.9898L56.018 27.9803L55.954 27.9472L55.9927 27.9875L55.9459 27.9586C56.0174 27.8737 56.1349 27.7777 56.1371 27.6754L56.0409 27.6479C55.736 27.8363 55.4965 28.0057 55.0977 28.0368L55.0123 27.9726C55.0267 27.9106 55.0382 27.8444 55.0577 27.7834C54.9799 27.6154 54.8982 27.4485 54.8125 27.2828C54.8459 27.164 54.7855 27.1079 54.7275 26.9992Z"
        fill="#9E84A4" />
    <path
        d="M45.4545 26.6379C45.8541 26.9149 46.5225 27.5187 47.0454 27.574C47.2057 27.5968 47.2792 27.5917 47.4104 27.6769C48.0129 27.9722 48.6871 27.9081 49.3552 27.812L49.4204 27.8363C49.4308 27.8359 49.4409 27.8375 49.4508 27.8351C49.5145 27.8204 49.5753 27.7982 49.6393 27.7851C49.9348 27.7244 50.3768 27.7886 50.6294 27.9258C50.9737 28.1128 51.055 28.4565 51.129 28.761C49.2323 28.7708 47.3354 28.7708 45.4386 28.7608L45.4545 26.6379Z"
        fill="#8D6457" />
    <path
        d="M47.7996 27.5725L47.9863 27.3446L47.9335 27.3929L48.0562 27.3492C48.054 27.3763 48.0444 27.4037 48.0497 27.4305C48.0549 27.4573 48.0746 27.4809 48.087 27.5062L48.167 27.4315C48.3027 27.4614 48.3648 27.5769 48.4596 27.5644C48.7236 27.5297 48.9465 27.5229 49.1755 27.6487C49.2608 27.6956 49.3146 27.734 49.3552 27.812C48.6871 27.9081 48.0129 27.9722 47.4104 27.6769C47.4811 27.6058 47.5385 27.5669 47.636 27.5203L47.7996 27.5725Z"
        fill="#DBA17B" />
    <path
        d="M55.0577 27.7834C55.0365 27.7884 55.0155 27.7944 54.9941 27.7984C54.8278 27.8294 54.7932 27.8487 54.6502 27.7823C54.6175 27.6071 54.7313 27.4419 54.8125 27.2828C54.8982 27.4485 54.9799 27.6154 55.0577 27.7834Z"
        fill="#DBA17B" />
    <path
        d="M51.2904 0.271582C51.4514 0.312879 51.6119 0.353082 51.7755 0.387885C51.8581 0.498577 51.825 0.600224 51.8064 0.721537C51.8085 0.747375 51.8101 0.773254 51.8127 0.799062C51.8251 0.919521 51.881 1.02623 51.9357 1.13751C51.8154 1.43688 51.5244 1.33128 51.6539 1.75897C52.0324 1.8312 52.2086 1.72718 52.5212 1.57198L52.6018 1.5314C52.6389 1.98556 52.6722 2.42934 52.6376 2.88475C52.3945 3.2253 52.0085 3.56979 51.5219 3.68306C51.1441 3.76981 50.7379 3.72289 50.406 3.55413C49.9449 3.32433 49.6346 2.94228 49.2733 2.62562C49.4369 2.47991 49.5106 2.36137 49.5837 2.17483L49.5441 2.1166C49.4046 2.01212 49.2799 1.914 49.2625 1.75507C49.3651 1.57916 49.635 1.49522 49.8383 1.40355C50.3458 1.14909 51.3726 0.993463 51.6771 0.700527C51.6357 0.520169 51.4444 0.40489 51.2904 0.271582ZM50.8958 1.82021C50.9459 1.73231 50.9637 1.67505 50.9841 1.58156C50.9317 1.45558 50.9333 1.4489 50.7974 1.37475C50.5894 1.34639 50.4904 1.37896 50.3065 1.44533L50.4187 1.48995L50.6003 1.47071L50.6493 1.53028C50.5471 1.63232 50.5468 1.63429 50.388 1.66329C50.2606 1.59562 50.1174 1.48195 49.9524 1.51027C49.8509 1.52768 49.8566 1.53343 49.8032 1.5811C49.8978 1.74524 50.1262 1.80641 50.3281 1.86837C50.547 1.89295 50.6851 1.87039 50.8958 1.82021ZM51.544 2.04525L50.7351 2.07235C50.6481 2.30243 50.5513 2.53268 50.478 2.76569C50.7675 2.77838 51.3751 2.85892 51.6055 2.69268C51.6867 2.63408 51.7249 2.51303 51.7587 2.43432L51.6413 2.37357C51.5069 2.44113 51.4359 2.51895 51.3393 2.61762C51.2334 2.64075 51.2254 2.66281 51.121 2.61563C51.003 2.56231 50.9605 2.50857 50.8874 2.42088L50.8726 2.28692C50.9968 2.1865 51.0613 2.18871 51.2352 2.18541C51.3378 2.18346 51.4418 2.18872 51.5444 2.19257L51.6135 2.13302L51.5717 2.05072L51.544 2.04525Z"
        fill="#DBA17B" />
    <path
        d="M50.3065 1.44533C50.4904 1.37896 50.5894 1.34639 50.7974 1.37475C50.9333 1.4489 50.9317 1.45558 50.9841 1.58156C50.9637 1.67505 50.9459 1.73231 50.8958 1.82021C50.6851 1.87039 50.547 1.89295 50.3281 1.86837C50.1262 1.80641 49.8978 1.74524 49.8032 1.5811C49.8566 1.53343 49.8509 1.52768 49.9524 1.51027C50.1174 1.48195 50.2606 1.59562 50.388 1.66329C50.5468 1.63429 50.5471 1.63232 50.6493 1.53028L50.6003 1.47071L50.4187 1.48995L50.3065 1.44533Z"
        fill="black" />
    <path
        d="M50.7351 2.07235L51.544 2.04525L51.5717 2.05072L51.6135 2.13302L51.5444 2.19257C51.4418 2.18872 51.3378 2.18346 51.2352 2.18541C51.0613 2.18871 50.9968 2.1865 50.8726 2.28692L50.8874 2.42088C50.9605 2.50857 51.003 2.56231 51.121 2.61563C51.2254 2.66281 51.2334 2.64075 51.3393 2.61762C51.4359 2.51895 51.5069 2.44113 51.6413 2.37357L51.7587 2.43432C51.7249 2.51303 51.6867 2.63408 51.6055 2.69268C51.3751 2.85892 50.7675 2.77838 50.478 2.76569C50.5513 2.53268 50.6481 2.30243 50.7351 2.07235Z"
        fill="black" />
    <defs>
        <linearGradient id="paint0_linear_1769_80551" x1="89.1205" y1="7.88557" x2="87.595" y2="21.9693"
            gradientUnits="userSpaceOnUse">
            <stop stop-color="#101210" />
            <stop offset="1" stop-color="#252F3B" />
        </linearGradient>
    </defs>
</svg>