<svg width="55" height="56" viewBox="0 0 55 56" fill="none" xmlns="http://www.w3.org/2000/svg">
    <path
        d="M19.9659 14.3337C21.314 11.4458 22.7209 8.8314 25.3076 6.91979C28.6352 4.4605 32.5465 3.54784 36.5884 4.20812C37.6692 4.39941 38.7317 4.785 39.7151 5.28322C42.9376 6.90883 45.4007 9.77781 46.5598 13.2563C48.1966 18.332 46.3026 22.2075 44.1309 26.6926C45.4229 27.3266 46.7368 27.8698 48 28.5706C45.7557 33.192 43.6916 37.9194 41.6149 42.6224C40.4068 45.3577 39.2644 48.174 37.8636 50.8091C37.1681 50.5259 36.4416 50.3302 35.7243 50.1147C34.9033 50.3502 34.1219 50.6778 33.3311 51C30.0805 49.3843 26.8205 47.7889 23.5509 46.2142L11.8381 40.6665C9.55201 39.5843 7.15403 38.5796 5 37.2393C6.06877 35.3904 6.91932 33.3743 7.84657 31.4443C10.2478 26.4463 12.4827 21.342 14.9391 16.379C16.6409 15.7827 18.2915 15.0089 19.9659 14.3337ZM35.7634 4.67293C32.5119 4.35558 29.3314 4.90334 26.7758 7.10411C24.2096 9.31393 22.6463 12.3777 21.3526 15.4878C22.5885 16.1278 23.8284 16.7604 25.0711 17.386C27.0376 13.8855 28.3613 10.7329 32.5158 9.56699C34.6174 8.97737 36.7965 9.18906 38.6824 10.3512C39.306 10.7356 39.8525 11.1897 40.3927 11.6868C41.7619 13.2839 42.5414 14.8737 42.3757 17.0628C42.1797 19.6482 40.8194 22.1527 39.7875 24.4694C41.0075 25.1759 42.2758 25.7507 43.5175 26.4085C45.6065 22.2703 47.4652 18.2228 46.0178 13.5025C45.0256 10.2671 42.6648 7.58934 39.7455 6.02562C38.4826 5.34892 37.1563 4.95044 35.7634 4.67293ZM33.3967 10.1915C31.1976 10.5428 29.4641 11.5171 28.1078 13.3606C27.1255 14.696 26.5011 16.2925 25.8539 17.8157C28.7462 19.1429 31.6049 20.5466 34.4269 22.0253C35.6112 22.5888 36.7953 23.2049 38.0169 23.6765C39.268 21.0321 40.8457 17.7044 39.8598 14.712C39.3278 13.0985 38.1913 11.8766 36.7115 11.1244C35.7087 10.6145 34.4976 10.3664 33.3967 10.1915ZM19.4922 15.4443C18.1963 18.6999 16.5422 21.8311 15.0729 25.0087C13.3003 28.8419 11.6637 32.8263 9.62945 36.5198C13.3884 38.5134 17.2801 40.2445 21.0969 42.1179C26.534 44.7868 31.9684 47.5873 37.5282 49.9733C38.306 49.427 45.924 31.5136 47.2482 28.8425C41.3893 26.1174 35.5602 23.3257 29.7618 20.4673C26.4156 18.7941 23.0107 16.6629 19.4922 15.4443ZM18.75 15.451C17.6287 15.8513 16.5138 16.2702 15.4057 16.7073C13.43 21.0603 11.4055 25.3895 9.33283 29.6945C8.43084 31.5712 6.48341 34.928 6.07791 36.6887L6.1385 36.8156C7.13211 36.6796 8.1207 36.5617 9.08927 36.2897C10.0823 34.1969 18.7985 16.0135 18.8104 15.7235C18.8141 15.6307 18.7702 15.542 18.75 15.451Z"
        fill="#020102" />
    <path
        d="M21.3526 15.4878C22.6463 12.3777 24.2096 9.31393 26.7758 7.10411C29.3314 4.90334 32.5119 4.35558 35.7634 4.67293C37.1563 4.95044 38.4826 5.34892 39.7455 6.02562C42.6648 7.58934 45.0256 10.2671 46.0178 13.5025C47.4652 18.2228 45.6065 22.2703 43.5175 26.4085C42.2758 25.7507 41.0075 25.1759 39.7875 24.4694C40.8194 22.1527 42.1797 19.6482 42.3757 17.0628C42.5414 14.8737 41.7619 13.2839 40.3927 11.6868C39.8525 11.1897 39.306 10.7356 38.6824 10.3512C36.7965 9.18906 34.6174 8.97737 32.5158 9.56699C28.3613 10.7329 27.0376 13.8855 25.0711 17.386C23.8284 16.7604 22.5885 16.1278 21.3526 15.4878Z"
        fill="#B5CFF8" />
    <path
        d="M25.8539 17.8157C26.5011 16.2925 27.1255 14.696 28.1078 13.3606C29.4641 11.5171 31.1976 10.5428 33.3967 10.1915C34.4976 10.3664 35.7087 10.6145 36.7115 11.1244C38.1913 11.8766 39.3278 13.0985 39.8598 14.712C40.8457 17.7044 39.268 21.0321 38.0169 23.6765C36.7953 23.2049 35.6112 22.5888 34.4269 22.0253C31.6049 20.5466 28.7462 19.1429 25.8539 17.8157Z"
        fill="#FBF6EB" />
    <path
        d="M9.62945 36.5198C11.6637 32.8263 13.3003 28.8419 15.0729 25.0087C16.5422 21.8311 18.1963 18.6999 19.4922 15.4443C23.0107 16.6629 26.4156 18.7941 29.7618 20.4673C35.5602 23.3257 41.3893 26.1174 47.2482 28.8425C45.924 31.5136 38.306 49.427 37.5282 49.9733C31.9684 47.5873 26.534 44.7868 21.0969 42.1179C17.2801 40.2445 13.3884 38.5134 9.62945 36.5198ZM29.9709 26.6907C28.6389 26.6742 27.604 26.726 26.5699 27.7069C25.0739 29.1262 24.5449 31.5854 23.5531 33.3666L25.1655 34.4652C24.6489 35.4898 23.0816 37.7522 23.5214 38.9115C23.7955 39.6341 24.9881 39.9653 25.6259 40.2138C25.928 40.2458 26.435 40.395 26.6821 40.2063C27.7513 39.3905 28.1565 37.3639 28.7756 36.1749C29.3714 36.3222 29.9754 36.5032 30.5794 36.6033C31.4343 34.8284 32.2706 33.0342 33.1728 31.2844C33.0648 29.8963 32.8744 28.7204 31.7598 27.7717C31.2375 27.3268 30.5807 26.9943 29.9709 26.6907Z"
        fill="#F3C575" />
    <path
        d="M15.4057 16.7073C16.5138 16.2702 17.6287 15.8513 18.75 15.451C18.7702 15.542 18.8141 15.6307 18.8104 15.7235C18.7985 16.0135 10.0823 34.1969 9.08927 36.2897C8.1207 36.5617 7.13211 36.6796 6.1385 36.8156L6.07791 36.6887C6.48341 34.928 8.43084 31.5712 9.33283 29.6945C11.4055 25.3895 13.43 21.0603 15.4057 16.7073Z"
        fill="#DBA17B" />
    <path
        d="M23.5531 33.3666C24.5449 31.5854 25.0739 29.1262 26.5699 27.7069C27.604 26.726 28.6389 26.6742 29.9709 26.6907C30.5807 26.9943 31.2375 27.3268 31.7598 27.7717C32.8744 28.7204 33.0648 29.8963 33.1728 31.2844C32.2706 33.0342 31.4343 34.8284 30.5794 36.6033C29.9754 36.5032 29.3714 36.3222 28.7756 36.1749C28.1565 37.3639 27.7513 39.3905 26.6821 40.2063C26.435 40.395 25.928 40.2458 25.6259 40.2138C24.9881 39.9653 23.7955 39.6341 23.5214 38.9115C23.0816 37.7522 24.6489 35.4898 25.1655 34.4652L23.5531 33.3666ZM29.0834 27.3165C27.8766 27.505 27.0568 27.9165 26.3396 28.9535C25.5233 30.1336 25.0708 31.6915 24.5704 33.035C25.0846 33.309 25.4523 33.4166 25.7736 33.9189C25.7875 35.4818 24.5 37.1376 23.8486 38.5375C24.6546 38.9828 25.4259 39.4338 26.3074 39.7041C27.0357 38.7122 28.0644 35.4198 28.9422 35.0307L29.1374 35.1379C29.4012 35.2796 29.751 35.5396 30.0488 35.4285C31.2616 34.9765 32.0523 32.1679 32.5528 31.0086C32.4023 29.8876 32.2011 28.9297 31.273 28.2078C30.632 27.7096 29.8562 27.4911 29.0834 27.3165Z"
        fill="#020102" />
    <path
        d="M24.5704 33.035C25.0708 31.6915 25.5233 30.1336 26.3396 28.9535C27.0568 27.9165 27.8766 27.505 29.0834 27.3165C29.8562 27.4911 30.632 27.7096 31.273 28.2078C32.2011 28.9297 32.4023 29.8876 32.5528 31.0086C32.0523 32.1679 31.2616 34.9765 30.0488 35.4285C29.751 35.5396 29.4012 35.2796 29.1374 35.1379L28.9422 35.0307C28.0644 35.4198 27.0357 38.7122 26.3074 39.7041C25.4259 39.4338 24.6546 38.9828 23.8486 38.5375C24.5 37.1376 25.7875 35.4818 25.7736 33.9189C25.4523 33.4166 25.0846 33.309 24.5704 33.035Z"
        fill="#DBA17B" />
</svg>