<svg width="40" height="33" viewBox="0 0 40 33" fill="none" xmlns="http://www.w3.org/2000/svg">
    <path
        d="M0 8.28383C0.207078 7.95485 0.414287 7.9142 0.783356 7.78812C4.13833 6.64272 7.75283 5.88526 11.1858 4.96278C16.0896 3.64489 21.0052 2.169 25.9562 1.05621C27.1876 0.779584 28.6332 0.578412 29.7641 1.26992C30.7723 1.88635 31.1612 3.0973 31.5075 4.16095C32.4492 6.54907 33.0635 9.78823 33.6972 12.3351C31.364 10.8978 28.7771 9.53662 26.6181 7.862C24.6205 11.3854 22.6033 14.8979 20.5666 18.3989C18.1505 16.8041 15.716 15.2375 13.2635 13.6998C12.0648 15.1178 11.0756 16.817 10.0329 18.3561C8.33268 20.8567 6.61239 23.3435 4.87225 25.8163L1.80073 14.2287C1.27219 12.2681 0.801124 10.2611 0.179698 8.32969L0 8.28383Z"
        fill="#F3C575" />
    <path
        d="M6.50808 32.3078C6.36109 30.3567 5.53333 28.1739 5.0147 26.2789C7.84685 22.3921 10.6051 18.452 13.2884 14.4603C15.8772 15.821 18.2862 17.5325 20.7175 19.1516C22.8013 15.666 24.8455 12.157 26.8498 8.62476C29.0264 10.1027 31.3949 11.6172 33.7773 12.7317C34.7777 16.536 35.8406 20.3349 36.7626 24.1584L14.1147 30.2247L14.8222 32.8C14.4023 32.0173 14.2275 31.1357 14.0051 30.2802C11.5108 30.9737 9.01156 31.6498 6.50808 32.3078Z"
        fill="#9E84A4" />
    <path
        d="M31.5075 4.16095C32.4492 6.54907 33.0635 9.78823 33.6972 12.3351C31.364 10.8978 28.7771 9.53662 26.6181 7.862C24.6205 11.3854 22.6033 14.8979 20.5666 18.3989C18.1505 16.8041 15.716 15.2375 13.2635 13.6998C12.0648 15.1178 11.0756 16.817 10.0329 18.3561C8.33268 20.8567 6.61239 23.3435 4.87225 25.8163L1.80073 14.2287C1.27219 12.2681 0.801124 10.2611 0.179698 8.32969L0 8.28383C1.24739 13.5468 2.76379 18.766 4.15921 23.9924C4.59327 25.6186 5.7823 31.203 6.50808 32.3078C6.36109 30.3567 5.53333 28.1739 5.0147 26.2789C7.84685 22.3921 10.6051 18.452 13.2884 14.4603C15.8772 15.821 18.2862 17.5325 20.7175 19.1516C22.8013 15.666 24.8455 12.157 26.8498 8.62476C29.0264 10.1027 31.3949 11.6172 33.7773 12.7317C34.7777 16.536 35.8406 20.3349 36.7626 24.1584L14.1147 30.2247L14.8222 32.8C23.0478 30.351 31.6833 28.0176 40 25.8961C38.8271 21.3594 37.6203 16.8315 36.3799 12.313C35.693 9.76934 34.8961 7.20476 34.3814 4.62081C34.1907 4.41289 33.9602 4.14869 33.7117 4.00618C32.9701 3.58184 32.2403 3.91133 31.5075 4.16095Z"
        fill="#202020" />
</svg>