<svg width="40" height="44" viewBox="0 0 40 44" fill="none" xmlns="http://www.w3.org/2000/svg">
    <path
        d="M17.5623 19.3238C17.5065 19.0765 17.4566 18.8275 17.4127 18.5773C16.6325 14.1853 16.3087 9.02736 18.8994 5.18046C20.7276 2.4659 23.479 0.743238 26.5992 0.189592C29.9119 -0.398334 33.0368 0.393243 35.7571 2.39538C37.5166 3.8229 38.9037 5.85422 39.5698 8.07435C40.652 11.6822 39.547 18.3082 37.8713 21.6257C36.5694 24.2026 34.2615 26.2711 31.5699 27.1152C28.4787 28.0849 25.1827 27.2437 22.4309 25.6951L11.2168 37.3592C9.09492 39.5738 7.03164 41.9417 4.77245 44C4.38575 43.9391 4.13096 43.5925 3.83938 43.3279C2.5412 42.0343 1.27687 40.699 1.07505e-07 39.3828C0.367346 38.9627 0.940239 38.4574 1.04531 37.9069C0.842967 37.625 0.674704 37.3927 0.562555 37.0583C2.17331 34.967 4.31332 33.0942 6.14722 31.1931L17.5623 19.3238ZM35.5455 2.63333C32.7956 0.616132 29.6993 -0.126052 26.362 0.503837C23.4082 1.03412 20.78 2.78287 19.0737 5.3532C17.3214 8.03884 16.6805 11.5265 17.3031 14.6927C17.9201 17.8302 19.7015 19.8645 21.9784 21.8801C24.1556 23.7402 26.889 24.4375 29.6805 24.1413C32.6947 23.8272 35.4643 22.2591 37.3606 19.7928C39.2207 17.381 39.9852 13.3045 39.6648 10.2666C39.3448 7.23152 37.9532 4.6061 35.6506 2.71782L35.5455 2.63333ZM18.6024 18.7475L0.906219 37.1535L4.27044 40.7032L21.988 22.3359C20.8169 21.1745 19.7026 19.9813 18.6024 18.7475Z"
        fill="#202020" />
    <path
        d="M21.9784 21.8801C19.7015 19.8645 17.9201 17.8302 17.3031 14.6927C16.6805 11.5265 17.3214 8.03884 19.0737 5.3532C20.78 2.78287 23.4082 1.03412 26.362 0.503837C29.6993 -0.126052 32.7956 0.616132 35.5455 2.63333L35.6506 2.71782C37.9532 4.6061 39.3448 7.23152 39.6648 10.2666C39.9852 13.3045 39.2207 17.381 37.3606 19.7928C35.4643 22.2591 32.6947 23.8272 29.6805 24.1413C26.889 24.4375 24.1556 23.7402 21.9784 21.8801ZM33.1283 4.69677C29.2831 2.04471 24.0858 3.15799 21.5329 7.18048C18.9799 11.2029 20.0424 16.6039 23.9035 19.2309C27.7475 21.846 32.9134 20.7216 35.4552 16.7171C37.997 12.7126 36.9562 7.3368 33.1283 4.69677Z"
        fill="#B5CFF8" />
    <path
        d="M23.9035 19.2309C20.0424 16.6039 18.9799 11.2029 21.5329 7.18048C24.0858 3.15799 29.2831 2.04471 33.1283 4.69677C36.9562 7.3368 37.997 12.7126 35.4552 16.7171C32.9134 20.7216 27.7475 21.846 23.9035 19.2309ZM31.4255 7.24881C30.1987 6.45635 29.0634 6.00923 27.6002 6.33587C26.1345 6.6634 24.8309 7.73074 24.0522 9.04835C23.2788 10.3568 22.9917 11.9639 23.351 13.4577C23.646 14.6852 24.4388 15.7943 25.4384 16.5042C25.478 16.5322 25.5224 16.5514 25.5642 16.5753C27.1204 17.3605 28.6089 17.7845 30.3266 17.2052C31.7461 16.7265 33.029 15.6502 33.7133 14.2611C34.2645 13.1415 34.4216 11.8449 34.0506 10.6423C33.5959 9.16825 32.502 8.23059 31.4255 7.24881Z"
        fill="#FFEDCD" />
    <path
        d="M25.5642 16.5753C25.5224 16.5514 25.478 16.5322 25.4384 16.5042C24.4388 15.7943 23.646 14.6852 23.351 13.4577C22.9917 11.9639 23.2788 10.3568 24.0522 9.04835C24.8309 7.73074 26.1345 6.6634 27.6002 6.33587C29.0634 6.00923 30.1987 6.45635 31.4255 7.24881C32.502 8.23059 33.5959 9.16825 34.0506 10.6423C34.4216 11.8449 34.2645 13.1415 33.7133 14.2611C33.029 15.6502 31.7461 16.7265 30.3266 17.2052C28.6089 17.7845 27.1204 17.3605 25.5642 16.5753Z"
        fill="#F3C575" />
    <path
        d="M0.906219 37.1535L18.6024 18.7475C19.7026 19.9813 20.8169 21.1745 21.988 22.3359L4.27044 40.7032L0.906219 37.1535Z"
        fill="#F3C575" />
</svg>