<svg width="56" height="55" viewBox="0 0 56 55" fill="none" xmlns="http://www.w3.org/2000/svg">
    <path
        d="M25.6582 6.40516C28.6161 7.79257 31.4845 10.2941 34.2448 12.1046L43.8209 18.3499C45.4634 19.4137 47.4097 20.4452 48.8712 21.7483C49.6926 22.4804 50.2379 23.5234 50.5986 24.5528C51.2237 26.337 50.9677 27.6317 50.1332 29.3049C48.4703 32.6394 45.8698 35.8253 43.8266 38.9664C41.7535 42.1526 39.8462 45.9143 37.4066 48.8041C36.6501 49.6995 35.7358 50.4868 34.6105 50.8613C32.825 51.456 30.9191 50.8469 29.3436 49.9785C25.7426 47.994 22.3325 45.4142 18.8672 43.1846C16.1416 41.4315 10.349 38.2449 8.23102 36.2251L9.00586 36.3619C8.58338 35.5585 8.22701 34.7739 8.18993 33.8488C8.14437 32.6914 8.51958 31.5928 9.00439 30.5553C10.2392 27.9136 20.8096 11.5264 22.6744 9.52345C24.0979 7.99421 25.6187 7.99132 27.5605 7.93149C27.1078 7.283 26.3087 6.84788 25.6582 6.40516ZM43.1504 23.3915L30.1686 28.0203C29.4713 25.6473 28.8404 23.3822 28.6216 20.9102L21.4467 23.499C22.4127 25.7708 22.7582 28.5192 23.2459 30.9413L24.8788 37.7831C31.8795 35.6628 37.9179 33.3167 44.8826 31.083C44.6036 29.1549 44.5014 24.714 43.1504 23.3915Z"
        fill="#B5CFF8" />
    <path
        d="M8.23112 36.2251C7.4535 35.5304 6.64127 34.8116 6.04093 33.9507C5.29354 32.8789 4.9745 31.5642 5.23953 30.2686C5.76474 27.7046 16.5694 11.182 18.6642 8.40935C19.1891 7.71471 19.7517 7.03949 20.5154 6.60293C22.149 5.66875 23.9445 5.90562 25.6583 6.40515C26.3088 6.84788 27.1079 7.28299 27.5606 7.93148C25.6188 7.99131 24.098 7.9942 22.6745 9.52344C20.8097 11.5264 10.2393 27.9136 9.0045 30.5553C8.51968 31.5928 8.14448 32.6914 8.19003 33.8488C8.22712 34.7739 8.58349 35.5585 9.00596 36.3619L8.23112 36.2251Z"
        fill="#202020" />
    <path
        d="M28.7997 28.5901L41.7358 24.2787C43.0872 25.6016 43.2799 30.0985 43.559 32.0271C36.5922 34.2614 29.6603 36.5662 22.6576 38.6871L21.0242 31.8433C20.5364 29.4206 20.1908 26.6714 19.2245 24.399L27.3229 21.383C27.5418 23.8557 28.1023 26.2164 28.7997 28.5901Z"
        fill="#F3C575" stroke="#FFEDCD" stroke-width="2.38187" />
</svg>