<svg viewBox="0 0 24 24" fill="none" xmlns="http://www.w3.org/2000/svg">
    <path
        d="M9.94096 11.1078C8.31401 10.714 6.93211 9.40673 6.93211 7.18605C6.93211 4.87416 8.76045 3 11.0158 3C13.2712 3 15.0995 4.87416 15.0995 7.18605C15.0995 7.91676 14.9499 8.74616 14.6912 9.27907M4 19.7442C4 17.2038 5.93316 15.0442 8.63413 14.2301M16.4128 15.1102H14.2831M14.2831 15.1102H12.1535M14.2831 15.1102V12.9712M14.2831 15.1102V17.3519M8.63413 14.2301C8.589 14.5269 8.56559 14.8307 8.56559 15.1395C8.56559 16.2384 8.86573 17.2786 9.39457 18.1577C9.68043 18.6558 10.0521 19.11 10.4809 19.4909C11.4814 20.4286 12.8106 21 14.2828 21C16.3696 21 18.1848 19.8572 19.171 18.1577C19.4712 17.6595 19.6999 17.0881 19.8285 16.5021C19.9428 16.0625 20 15.6084 20 15.1395C20 13.6451 19.4426 12.2679 18.5278 11.2277C17.4987 10.0263 15.9694 9.27907 14.2828 9.27907C12.682 9.27907 11.2241 9.95306 10.1807 11.0519C9.37547 11.9009 8.8202 13.0061 8.63413 14.2301Z"
        stroke="currentColor" stroke-width="1.3" stroke-miterlimit="10" stroke-linecap="round"
        stroke-linejoin="round" />
</svg>