<svg viewBox="0 0 17 17" stroke-width="1.2" fill="none" xmlns="http://www.w3.org/2000/svg">
    <path
        d="M11.639 4.93664L10.7552 3.54012C10.5689 3.32297 10.3136 3.1875 10.0273 3.1875H6.97266C6.68645 3.1875 6.43111 3.32297 6.24484 3.54012L5.36098 4.93664C5.17471 5.15412 4.93465 5.3125 4.64844 5.3125H2.65625C2.37446 5.3125 2.10421 5.42444 1.90495 5.6237C1.70569 5.82296 1.59375 6.09321 1.59375 6.375V12.75C1.59375 13.0318 1.70569 13.302 1.90495 13.5013C2.10421 13.7006 2.37446 13.8125 2.65625 13.8125H14.3438C14.6255 13.8125 14.8958 13.7006 15.0951 13.5013C15.2943 13.302 15.4062 13.0318 15.4062 12.75V6.375C15.4062 6.09321 15.2943 5.82296 15.0951 5.6237C14.8958 5.42444 14.6255 5.3125 14.3438 5.3125H12.3848C12.0976 5.3125 11.8253 5.15412 11.639 4.93664Z"
        stroke="currentColor" stroke-width="inherit" stroke-linecap="round" stroke-linejoin="round" />
    <path
        d="M8.5 11.6875C9.96701 11.6875 11.1562 10.4983 11.1562 9.03125C11.1562 7.56424 9.96701 6.375 8.5 6.375C7.03299 6.375 5.84375 7.56424 5.84375 9.03125C5.84375 10.4983 7.03299 11.6875 8.5 11.6875Z"
        stroke="currentColor" stroke-width="inherit" stroke-miterlimit="10" />
</svg>