<svg width="25" height="24" viewBox="0 0 25 24" fill="none" xmlns="http://www.w3.org/2000/svg">
    <path
        d="M18.7703 2.91162C19.4731 2.91163 20.1473 3.19102 20.6443 3.68799C21.1413 4.18496 21.4207 4.85919 21.4207 5.56201V18.436C21.4206 19.1389 21.1413 19.8131 20.6443 20.3101C20.1473 20.807 19.4731 21.0864 18.7703 21.0864H5.89624C5.19342 21.0864 4.51919 20.807 4.02222 20.3101C3.52525 19.8131 3.24586 19.1389 3.24585 18.436V5.56201C3.24585 4.85919 3.52525 4.18496 4.02222 3.68799C4.51919 3.19102 5.19342 2.91162 5.89624 2.91162H18.7703ZM5.89624 4.2124C5.5382 4.2124 5.19434 4.35376 4.94116 4.60693C4.68799 4.86011 4.54663 5.20397 4.54663 5.56201V18.436C4.54664 18.7938 4.68829 19.137 4.94116 19.3901C5.19434 19.6433 5.5382 19.7856 5.89624 19.7856H18.7703C19.1283 19.7856 19.4712 19.6433 19.7244 19.3901C19.9775 19.137 20.1199 18.7941 20.1199 18.436V5.56201C20.1199 5.20397 19.9775 4.86011 19.7244 4.60693C19.4712 4.35406 19.1281 4.21241 18.7703 4.2124H5.89624Z"
        fill="currentColor" stroke="currentColor" stroke-width="0.3" />
    <path
        d="M12.333 5.89362C12.5053 5.89362 12.6711 5.96223 12.793 6.08405L12.874 6.18365C12.9446 6.28963 12.9834 6.41478 12.9834 6.54401V14.544C12.9834 14.7164 12.9149 14.8821 12.793 15.004C12.6711 15.1258 12.5053 15.1944 12.333 15.1944C12.1609 15.1943 11.9958 15.1256 11.874 15.004C11.7521 14.8821 11.6836 14.7164 11.6836 14.544V6.54401C11.6836 6.37162 11.7521 6.20594 11.874 6.08405L11.9727 6.00299C12.0786 5.9324 12.2039 5.89367 12.333 5.89362ZM16.6777 5.90631C16.8026 5.93126 16.9184 5.99275 17.0098 6.08405L17.0908 6.18365C17.1615 6.28965 17.2002 6.41474 17.2002 6.54401V12.4532C17.2001 12.6254 17.1315 12.7903 17.0098 12.9122C16.8879 13.0341 16.7222 13.1026 16.5498 13.1026C16.3776 13.1025 16.2126 13.034 16.0908 12.9122C15.9691 12.7903 15.9004 12.6254 15.9004 12.4532V6.54401C15.9004 6.37162 15.9689 6.20594 16.0908 6.08405L16.1895 6.00299C16.2953 5.93237 16.4207 5.89371 16.5498 5.89362L16.6777 5.90631ZM8.11328 5.89362C8.28567 5.89362 8.45134 5.96215 8.57324 6.08405L8.6543 6.18365C8.72486 6.2896 8.76367 6.41483 8.76367 6.54401V10.544C8.76367 10.7164 8.69514 10.8821 8.57324 11.004C8.45134 11.1259 8.28567 11.1944 8.11328 11.1944C7.98411 11.1944 7.85887 11.1556 7.75293 11.085L7.65332 11.004C7.53142 10.8821 7.46289 10.7164 7.46289 10.544V6.54401C7.46289 6.37162 7.53142 6.20594 7.65332 6.08405L7.75293 6.00299C7.85887 5.93243 7.98411 5.89362 8.11328 5.89362Z"
        fill="currentColor" stroke="currentColor" stroke-width="0.3" />
</svg>