<svg viewBox="0 0 24 24" fill="none" xmlns="http://www.w3.org/2000/svg">
    <path
        d="M16.7 8.21053H17.1333C17.612 8.21053 18 7.8335 18 7.36842V6.94737C18 6.48229 17.612 6.10526 17.1333 6.10526H14.5333M16.7 8.21053V18.3158C16.7 19.246 15.924 20 14.9667 20H8.03333C7.07604 20 6.3 19.246 6.3 18.3158V8.21053M16.7 8.21053H6.3M14.5333 6.10526V5.68421C14.5333 4.75405 13.7573 4 12.8 4H10.2C9.24271 4 8.46667 4.75405 8.46667 5.68421V6.10526M14.5333 6.10526H8.46667M6.3 8.21053H5.86667C5.38802 8.21053 5 7.8335 5 7.36842V6.94737C5 6.48229 5.38802 6.10526 5.86667 6.10526H8.46667M9.76667 11.1579V17.0526M13.2333 11.1579V17.0526"
        stroke="currentColor" stroke-width="1.25" stroke-linecap="round" />
</svg>