<svg viewBox="0 0 25 24" fill="none" xmlns="http://www.w3.org/2000/svg">
    <path
        d="M8.66484 16H12.6648M8.66484 11H16.6648M8.16684 3.5C6.61084 3.547 5.68384 3.72 5.04184 4.362C4.16284 5.242 4.16284 6.657 4.16284 9.488V15.994C4.16284 18.826 4.16284 20.241 5.04184 21.121C5.91984 22 7.33484 22 10.1628 22H15.1628C17.9918 22 19.4058 22 20.2838 21.12C21.1638 20.241 21.1638 18.826 21.1638 15.994V9.488C21.1638 6.658 21.1638 5.242 20.2838 4.362C19.6428 3.72 18.7148 3.547 17.1588 3.5"
        stroke="currentColor" stroke-width="1.5" stroke-linecap="round" stroke-linejoin="round" />
    <path
        d="M8.16284 3.75C8.16284 2.784 8.94684 2 9.91284 2H15.4128C15.877 2 16.3221 2.18437 16.6503 2.51256C16.9785 2.84075 17.1628 3.28587 17.1628 3.75C17.1628 4.21413 16.9785 4.65925 16.6503 4.98744C16.3221 5.31563 15.877 5.5 15.4128 5.5H9.91284C9.44871 5.5 9.00359 5.31563 8.67541 4.98744C8.34722 4.65925 8.16284 4.21413 8.16284 3.75Z"
        stroke="currentColor" stroke-width="1.5" stroke-linecap="round" stroke-linejoin="round" />
</svg>