<svg viewBox="0 0 28 28" fill="none" xmlns="http://www.w3.org/2000/svg">
    <path
        d="M4.66675 21C4.66675 19.7623 5.15841 18.5753 6.03358 17.7001C6.90875 16.825 8.09574 16.3333 9.33342 16.3333H18.6667C19.9044 16.3333 21.0914 16.825 21.9666 17.7001C22.8417 18.5753 23.3334 19.7623 23.3334 21C23.3334 21.6188 23.0876 22.2123 22.65 22.6499C22.2124 23.0875 21.6189 23.3333 21.0001 23.3333H7.00008C6.38124 23.3333 5.78775 23.0875 5.35017 22.6499C4.91258 22.2123 4.66675 21.6188 4.66675 21Z"
        stroke="currentColor" stroke-width="2" stroke-linejoin="round" />
    <path
        d="M14 11.6666C15.933 11.6666 17.5 10.0996 17.5 8.16663C17.5 6.23363 15.933 4.66663 14 4.66663C12.067 4.66663 10.5 6.23363 10.5 8.16663C10.5 10.0996 12.067 11.6666 14 11.6666Z"
        stroke="currentColor" stroke-width="2" />
</svg>