<svg width="28" height="28" viewBox="0 0 28 28" fill="none" xmlns="http://www.w3.org/2000/svg">
    <path
        d="M25 25L19.9332 19.9332M19.9332 19.9332C20.7999 19.0665 21.4874 18.0376 21.9565 16.9052C22.4255 15.7728 22.6669 14.5592 22.6669 13.3335C22.6669 12.1078 22.4255 10.8941 21.9565 9.7617C21.4874 8.62932 20.7999 7.6004 19.9332 6.73371C19.0665 5.86702 18.0376 5.17952 16.9052 4.71047C15.7728 4.24142 14.5592 4 13.3335 4C12.1078 4 10.8941 4.24142 9.7617 4.71047C8.62932 5.17952 7.6004 5.86702 6.73371 6.73371C4.98334 8.48407 4 10.8581 4 13.3335C4 15.8089 4.98334 18.1829 6.73371 19.9332C8.48407 21.6836 10.8581 22.6669 13.3335 22.6669C15.8089 22.6669 18.1829 21.6836 19.9332 19.9332Z"
        stroke="currentColor" stroke-width="2" stroke-linecap="round" stroke-linejoin="round" />
</svg>