<svg viewBox="0 0 24 24" fill="none" xmlns="http://www.w3.org/2000/svg">
  <path
    d="M8.89655 11.1111V7.33333C8.89655 5.49238 10.286 4 12 4C13.714 4 15.1034 5.49238 15.1034 7.33333V11.1111M7.65517 20H16.3448C17.259 20 18 19.2041 18 18.2222V12.8889C18 11.907 17.259 11.1111 16.3448 11.1111H7.65517C6.74105 11.1111 6 11.907 6 12.8889V18.2222C6 19.2041 6.74105 20 7.65517 20ZM13.8621 15.5556C13.8621 16.5374 13.121 17.3333 12.2069 17.3333C11.2927 17.3333 10.5517 16.5374 10.5517 15.5556C10.5517 14.5737 11.2927 13.7778 12.2069 13.7778C13.121 13.7778 13.8621 14.5737 13.8621 15.5556Z"
    stroke="currentColor" stroke-width="1.1" stroke-linecap="round" />
</svg>