<svg width="353" height="32" viewBox="0 0 353 32" fill="none" xmlns="http://www.w3.org/2000/svg">
    <g clip-path="url(#clip0_742_68562)">
        <rect y="4" width="24" height="24" rx="4" fill="#B5CFF8" />
        <path
            d="M21.1523 3.99863C21.6494 3.33592 22.5902 3.20179 23.2529 3.69882C23.9156 4.19588 24.0497 5.13667 23.5527 5.79941C21.9744 7.9039 20.6187 10.3425 19.3339 12.7877L18.7871 13.8355C17.9503 15.4461 17.2768 17.0729 16.7304 18.7896L16.5039 19.5309C16.4508 19.7119 16.3848 19.9304 16.3125 20.1627L16.0859 20.8795C15.5381 22.5943 13.4095 23.1785 12.0634 21.9801C11.5942 21.5624 11.0586 21.0797 10.8056 20.8268C9.19443 19.2156 7.63091 17.6372 5.9814 16.1812L5.26949 15.565C5.11928 15.4379 4.6858 15.0778 4.2812 14.7428C4.08094 14.5769 3.8904 14.4194 3.74995 14.3033C3.67984 14.2453 3.6221 14.1978 3.58199 14.1646C3.56193 14.1481 3.54576 14.1354 3.53511 14.1266C3.52979 14.1222 3.52612 14.1181 3.52339 14.1158C3.52225 14.1149 3.52112 14.1144 3.52046 14.1139L3.51949 14.1129L3.4062 14.0094C2.87174 13.4684 2.82354 12.5994 3.31831 12.0006C3.84601 11.3622 4.7911 11.2728 5.42964 11.8004H5.43062V11.8014C5.43132 11.8019 5.43314 11.8022 5.43452 11.8033C5.43729 11.8056 5.44095 11.8097 5.44624 11.8141C5.45696 11.8229 5.47305 11.8356 5.49312 11.8521C5.5334 11.8854 5.59167 11.9336 5.66206 11.9918C5.80277 12.1081 5.99356 12.266 6.19429 12.4322C6.59249 12.762 7.04152 13.135 7.20699 13.275L7.96187 13.9273C9.70674 15.4674 11.3403 17.1192 12.9267 18.7057C13.0286 18.8075 13.2236 18.9877 13.4638 19.2057C13.5242 19.0109 13.5821 18.8343 13.625 18.6881L13.872 17.8785C14.4692 16.0024 15.208 14.2177 16.125 12.4527L16.6738 11.4019C17.9738 8.92642 19.4261 6.30018 21.1523 3.99863Z"
            fill="#202020" />
    </g>
    <path d="M39.9895 8.33333H44.5054V25.6154H39.9895V8.33333ZM32 6.38461H52.4682V10.2308H32V6.38461Z" fill="#202020" />
    <path
        d="M54.3868 21.5641V18.0256H68.2817V21.5641H54.3868ZM64.3537 6.38461L73.7327 25.6154H68.8963L60.693 8.15385H62.1893L53.986 25.6154H49.1496L58.5286 6.38461H64.3537Z"
        fill="#202020" />
    <path
        d="M73.2952 19.3333H77.8912C77.998 19.9829 78.292 20.5556 78.7729 21.0513C79.2717 21.5299 79.9308 21.906 80.7503 22.1795C81.5875 22.4359 82.5495 22.5641 83.6361 22.5641C85.2216 22.5641 86.4685 22.3504 87.377 21.9231C88.3034 21.4786 88.7665 20.8632 88.7665 20.0769C88.7665 19.4615 88.4993 18.9915 87.9649 18.6667C87.4483 18.3248 86.4774 18.0769 85.0523 17.9231L81.0175 17.4872C78.4167 17.2137 76.5284 16.6325 75.3527 15.7436C74.1948 14.8376 73.6158 13.5812 73.6158 11.9744C73.6158 10.7094 73.9988 9.63248 74.7648 8.74359C75.5486 7.8547 76.6442 7.17949 78.0515 6.71795C79.4588 6.23932 81.1155 6 83.0216 6C84.8742 6 86.522 6.26496 87.9649 6.79487C89.4078 7.30769 90.5568 8.03419 91.4119 8.97436C92.267 9.89744 92.7301 10.9829 92.8014 12.2308H88.2054C88.1163 11.6667 87.8491 11.1795 87.4038 10.7692C86.9762 10.3419 86.3795 10.0171 85.6135 9.79487C84.8475 9.55556 83.9479 9.4359 82.9147 9.4359C81.4717 9.4359 80.3227 9.64103 79.4677 10.0513C78.6126 10.4615 78.1851 11.0427 78.1851 11.7949C78.1851 12.3761 78.4345 12.8291 78.9333 13.1538C79.4499 13.4615 80.3495 13.6923 81.6321 13.8462L85.8272 14.3333C87.6799 14.5214 89.1495 14.8291 90.2362 15.2564C91.3406 15.6667 92.1245 16.2222 92.5876 16.9231C93.0686 17.6239 93.3091 18.5128 93.3091 19.5897C93.3091 20.8718 92.8994 22 92.0799 22.9744C91.2783 23.9316 90.1471 24.6752 88.6864 25.2051C87.2256 25.735 85.5155 26 83.556 26C81.5608 26 79.8061 25.7265 78.292 25.1795C76.7778 24.6154 75.5843 23.8376 74.7114 22.8462C73.8385 21.8376 73.3664 20.6667 73.2952 19.3333Z"
        fill="#202020" />
    <path
        d="M95.8273 25.6154V6.38461H100.343V22.0769L99.0605 21.2051L111.459 6.38461H116.295L99.9156 25.6154H95.8273ZM105.393 16.2051L108.653 13.4103L116.589 25.6154H111.406L105.393 16.2051Z"
        fill="#202020" />
    <path d="M124.408 8.33333H128.923V25.6154H124.408V8.33333ZM116.418 6.38461H136.886V10.2308H116.418V6.38461Z"
        fill="#202020" />
    <path
        d="M142.037 14.9231H149.76C150.775 14.9231 151.577 14.7009 152.165 14.2564C152.77 13.7949 153.073 13.1624 153.073 12.359C153.073 11.5556 152.77 10.9316 152.165 10.4872C151.577 10.0427 150.775 9.82051 149.76 9.82051H141.369L143.427 7.58974V25.6154H138.884V6.38461H150.294C151.755 6.38461 153.038 6.64103 154.142 7.15385C155.246 7.64957 156.11 8.34188 156.734 9.23077C157.357 10.1197 157.669 11.1624 157.669 12.359C157.669 13.5385 157.357 14.5726 156.734 15.4615C156.11 16.3504 155.246 17.0513 154.142 17.5641C153.038 18.0598 151.755 18.3077 150.294 18.3077H142.037V14.9231ZM145.511 16.6154H150.695L158.257 25.6154H152.94L145.511 16.6154Z"
        fill="#202020" />
    <path
        d="M163.399 21.5641V18.0256H177.294V21.5641H163.399ZM173.366 6.38461L182.745 25.6154H177.909L169.706 8.15385H171.202L162.999 25.6154H158.162L167.541 6.38461H173.366Z"
        fill="#202020" />
    <path d="M184.368 6.38461H188.911V25.6154H184.368V6.38461Z" fill="#202020" />
    <path d="M197.014 6.38461V23.6923L194.956 21.7692H210V25.6154H192.471V6.38461H197.014Z" fill="#202020" />
    <defs>
        <clipPath id="clip0_742_68562">
            <rect y="4" width="24" height="24" rx="4" fill="white" />
        </clipPath>
    </defs>
</svg>