<svg width="263" height="40" viewBox="0 0 263 40" fill="none" xmlns="http://www.w3.org/2000/svg">
    <g clip-path="url(#clip0_1352_54707)">
        <rect y="5" width="30" height="30" rx="5" fill="#B5CFF8" />
        <path
            d="M26.4409 4.99822C27.0622 4.16983 28.2382 4.00217 29.0666 4.62347C29.895 5.24479 30.0627 6.42077 29.4413 7.2492C27.4684 9.87981 25.7739 12.9281 24.1679 15.9846L23.4843 17.2944C22.4383 19.3076 21.5965 21.341 20.9135 23.487L20.6303 24.4135C20.564 24.6398 20.4814 24.9129 20.3911 25.2033L20.1079 26.0993C19.4231 28.2428 16.7624 28.9731 15.0798 27.475C14.4933 26.9529 13.8238 26.3496 13.5075 26.0334C11.4935 24.0194 9.53912 22.0464 7.47724 20.2265L6.58735 19.4562C6.39958 19.2974 5.85774 18.8472 5.35199 18.4284C5.10167 18.2211 4.86348 18.0243 4.68793 17.8791C4.60029 17.8066 4.52812 17.7472 4.47797 17.7057C4.45291 17.685 4.43268 17.6691 4.41938 17.6581C4.41272 17.6526 4.40814 17.6475 4.40473 17.6447C4.4033 17.6435 4.40189 17.6429 4.40107 17.6423L4.39985 17.641L4.25824 17.5117C3.59016 16.8354 3.52991 15.7492 4.14838 15.0007C4.80801 14.2027 5.98936 14.091 6.78754 14.7504H6.78876V14.7516C6.78964 14.7524 6.79192 14.7527 6.79364 14.7541C6.7971 14.7569 6.80168 14.762 6.80829 14.7675C6.82168 14.7786 6.8418 14.7944 6.86689 14.8151C6.91723 14.8567 6.99008 14.9169 7.07807 14.9897C7.25395 15.1351 7.49244 15.3324 7.74335 15.5402C8.2411 15.9524 8.80239 16.4187 9.00922 16.5937L9.95282 17.4091C12.1339 19.3341 14.1758 21.399 16.1589 23.382C16.2862 23.5093 16.53 23.7346 16.8303 24.007C16.9058 23.7636 16.9782 23.5428 17.0317 23.36L17.3405 22.3481C18.087 20.003 19.0105 17.7721 20.1567 15.5659L20.8427 14.2524C22.4678 11.158 24.2832 7.87516 26.4409 4.99822Z"
            fill="#202020" />
    </g>
    <path d="M49.9869 10.4167H55.6317V32.0192H49.9869V10.4167ZM40 7.98077H65.5852V12.7885H40V7.98077Z" fill="#202020" />
    <path
        d="M67.9836 26.9551V22.5321H85.3521V26.9551H67.9836ZM80.4421 7.98077L92.1659 32.0192H86.1203L75.8662 10.1923H77.7367L67.4825 32.0192H61.4369L73.1607 7.98077H80.4421Z"
        fill="#202020" />
    <path
        d="M91.619 24.1667H97.3639C97.4975 24.9786 97.865 25.6944 98.4662 26.3141C99.0897 26.9124 99.9136 27.3825 100.938 27.7244C101.984 28.0449 103.187 28.2051 104.545 28.2051C106.527 28.2051 108.086 27.938 109.221 27.4038C110.379 26.8483 110.958 26.0791 110.958 25.0962C110.958 24.3269 110.624 23.7393 109.956 23.3333C109.31 22.906 108.097 22.5962 106.315 22.4038L101.272 21.859C98.0208 21.5171 95.6605 20.7906 94.1908 19.6795C92.7435 18.547 92.0198 16.9765 92.0198 14.9679C92.0198 13.3868 92.4985 12.0406 93.456 10.9295C94.4358 9.81838 95.8052 8.97436 97.5643 8.39744C99.3235 7.79915 101.394 7.5 103.777 7.5C106.093 7.5 108.152 7.8312 109.956 8.49359C111.76 9.13462 113.196 10.0427 114.265 11.2179C115.334 12.3718 115.913 13.7286 116.002 15.2885H110.257C110.145 14.5833 109.811 13.9744 109.255 13.4615C108.72 12.9274 107.974 12.5214 107.017 12.2436C106.059 11.9444 104.935 11.7949 103.643 11.7949C101.84 11.7949 100.403 12.0513 99.3346 12.5641C98.2658 13.0769 97.7314 13.8034 97.7314 14.7436C97.7314 15.4701 98.0431 16.0363 98.6666 16.4423C99.3123 16.8269 100.437 17.1154 102.04 17.3077L107.284 17.9167C109.6 18.1517 111.437 18.5363 112.795 19.0705C114.176 19.5833 115.156 20.2778 115.735 21.1538C116.336 22.0299 116.636 23.141 116.636 24.4872C116.636 26.0897 116.124 27.5 115.1 28.7179C114.098 29.9145 112.684 30.844 110.858 31.5064C109.032 32.1688 106.894 32.5 104.445 32.5C101.951 32.5 99.7577 32.1581 97.865 31.4744C95.9722 30.7692 94.4803 29.797 93.3892 28.5577C92.2981 27.297 91.708 25.8333 91.619 24.1667Z"
        fill="#202020" />
    <path
        d="M119.784 32.0192V7.98077H125.429V27.5962L123.826 26.5064L139.324 7.98077H145.369L124.894 32.0192H119.784ZM131.742 20.2564L135.817 16.7628L145.737 32.0192H139.257L131.742 20.2564Z"
        fill="#202020" />
    <path d="M155.509 10.4167H161.154V32.0192H155.509V10.4167ZM145.523 7.98077H171.108V12.7885H145.523V7.98077Z"
        fill="#202020" />
    <path
        d="M177.547 18.6538H187.2C188.469 18.6538 189.471 18.3761 190.206 17.8205C190.963 17.2436 191.341 16.453 191.341 15.4487C191.341 14.4444 190.963 13.6645 190.206 13.109C189.471 12.5534 188.469 12.2756 187.2 12.2756H176.712L179.284 9.48718V32.0192H173.605V7.98077H187.868C189.694 7.98077 191.297 8.30128 192.677 8.94231C194.058 9.56197 195.138 10.4274 195.917 11.5385C196.697 12.6496 197.086 13.953 197.086 15.4487C197.086 16.9231 196.697 18.2158 195.917 19.3269C195.138 20.438 194.058 21.3141 192.677 21.9551C191.297 22.5748 189.694 22.8846 187.868 22.8846H177.547V18.6538ZM181.889 20.7692H188.369L197.821 32.0192H191.174L181.889 20.7692Z"
        fill="#202020" />
    <path
        d="M204.249 26.9551V22.5321H221.618V26.9551H204.249ZM216.708 7.98077L228.432 32.0192H222.386L212.132 10.1923H214.002L203.748 32.0192H197.703L209.427 7.98077H216.708Z"
        fill="#202020" />
    <path d="M230.46 7.98077H236.138V32.0192H230.46V7.98077Z" fill="#202020" />
    <path d="M246.267 7.98077V29.6154L243.695 27.2115H262.5V32.0192H240.589V7.98077H246.267Z" fill="#202020" />
    <defs>
        <clipPath id="clip0_1352_54707">
            <rect y="5" width="30" height="30" rx="5" fill="white" />
        </clipPath>
    </defs>
</svg>