<svg width="24" height="24" viewBox="0 0 24 24" fill="none" xmlns="http://www.w3.org/2000/svg">
    <path
        d="M16.7891 3.90039C17.0507 3.9004 17.3003 3.95266 17.5371 4.05762C17.7751 4.16316 17.9724 4.31977 18.127 4.52637L19.7021 6.43457H19.7031C19.8359 6.58867 19.9358 6.76149 20.002 6.95215H20.001C20.0668 7.14108 20.0996 7.33883 20.0996 7.54492V18.2305C20.0995 18.7083 19.9029 19.1391 19.5215 19.5205C19.1877 19.8543 18.8161 20.0469 18.4082 20.0898L18.2314 20.0986L5.76953 20.0996C5.29104 20.0995 4.85999 19.903 4.47852 19.5215C4.09707 19.14 3.90051 18.7093 3.90039 18.2314V7.48633L3.90625 7.33398C3.91855 7.18393 3.94943 7.03998 3.99902 6.90234L4.05469 6.7666C4.09616 6.67846 4.14617 6.5942 4.2041 6.51367L4.29688 6.39551L5.85059 4.53125L5.97363 4.38477C6.10446 4.24706 6.25773 4.13755 6.43262 4.05762C6.6634 3.95219 6.91061 3.90041 7.17285 3.90039H16.7891ZM5.09961 18.3848C5.09961 18.5405 5.14952 18.6612 5.24414 18.7559C5.33869 18.8504 5.45972 18.9004 5.61621 18.9004H18.3848C18.5405 18.9004 18.6612 18.8505 18.7559 18.7559C18.8505 18.6612 18.9004 18.5405 18.9004 18.3848V7.9082H5.09961V18.3848ZM12.5996 10.4766V15.0361L14.5293 13.1064L14.5996 13.0352L15.4492 13.8848L15.3789 13.9561L12.0703 17.2627L12 17.333L11.9297 17.2627L8.62109 13.9561L8.55078 13.8848L9.40039 13.0352L9.4707 13.1064L11.4004 15.0361V10.4766H12.5996ZM7.19238 5.09961C7.118 5.09961 7.04499 5.11559 6.97363 5.14844C6.90154 5.18162 6.83942 5.22553 6.78613 5.2793L5.59375 6.70801H18.3867L17.1992 5.28125L17.1094 5.20605C17.0773 5.18395 17.043 5.16498 17.0068 5.14844C16.9363 5.11628 16.8635 5.09962 16.7881 5.09961H7.19238Z"
        fill="currentColor" stroke="currentColor" stroke-width="0.2" />
</svg>