<svg viewBox="0 0 24 24" fill="currentColor" stroke="currentColor" xmlns="http://www.w3.org/2000/svg">
    <path
        d="M6.02987 11C6.59865 11 7.05974 11.4477 7.05974 12C7.05974 12.5523 6.59865 13 6.02987 13C5.46109 13 5 12.5523 5 12C5 11.4477 5.46109 11 6.02987 11Z"
        fill="inherit" />
    <path
        d="M12.0006 11C12.5694 11 13.0304 11.4477 13.0304 12C13.0304 12.5523 12.5694 13 12.0006 13C11.4318 13 10.9707 12.5523 10.9707 12C10.9707 11.4477 11.4318 11 12.0006 11Z"
        fill="inherit" />
    <path
        d="M17.9703 11C18.5391 11 19.0002 11.4477 19.0002 12C19.0002 12.5523 18.5391 13 17.9703 13C17.4015 13 16.9404 12.5523 16.9404 12C16.9404 11.4477 17.4015 11 17.9703 11Z"
        fill="inherit" />
    <path
        d="M6.02987 11C6.59865 11 7.05974 11.4477 7.05974 12C7.05974 12.5523 6.59865 13 6.02987 13C5.46109 13 5 12.5523 5 12C5 11.4477 5.46109 11 6.02987 11Z"
        stroke="inherit" stroke-width="1.4" stroke-linecap="round" />
    <path
        d="M12.0006 11C12.5694 11 13.0304 11.4477 13.0304 12C13.0304 12.5523 12.5694 13 12.0006 13C11.4318 13 10.9707 12.5523 10.9707 12C10.9707 11.4477 11.4318 11 12.0006 11Z"
        stroke="inherit" stroke-width="1.4" stroke-linecap="round" />
    <path
        d="M17.9703 11C18.5391 11 19.0002 11.4477 19.0002 12C19.0002 12.5523 18.5391 13 17.9703 13C17.4015 13 16.9404 12.5523 16.9404 12C16.9404 11.4477 17.4015 11 17.9703 11Z"
        stroke="inherit" stroke-width="1.4" stroke-linecap="round" />
</svg>