<svg width="24" height="25" viewBox="0 0 24 25" fill="none" xmlns="http://www.w3.org/2000/svg">
<path d="M6.29292 4.793C6.48045 4.60553 6.73475 4.50021 6.99992 4.50021C7.26508 4.50021 7.51939 4.60553 7.70692 4.793L11.7069 8.793C11.8891 8.9816 11.9899 9.2342 11.9876 9.4964C11.9853 9.7586 11.8801 10.0094 11.6947 10.1948C11.5093 10.3802 11.2585 10.4854 10.9963 10.4877C10.7341 10.49 10.4815 10.3892 10.2929 10.207L7.99992 7.914V19.5C7.99992 19.7652 7.89456 20.0196 7.70703 20.2071C7.51949 20.3946 7.26514 20.5 6.99992 20.5C6.7347 20.5 6.48035 20.3946 6.29281 20.2071C6.10528 20.0196 5.99992 19.7652 5.99992 19.5V7.914L3.70692 10.207C3.51832 10.3892 3.26571 10.49 3.00352 10.4877C2.74132 10.4854 2.49051 10.3802 2.3051 10.1948C2.11969 10.0094 2.01452 9.7586 2.01224 9.4964C2.00997 9.2342 2.11076 8.9816 2.29292 8.793L6.29292 4.793ZM15.9999 17.086V5.5C15.9999 5.23478 16.1053 4.98043 16.2928 4.79289C16.4803 4.60536 16.7347 4.5 16.9999 4.5C17.2651 4.5 17.5195 4.60536 17.707 4.79289C17.8946 4.98043 17.9999 5.23478 17.9999 5.5V17.086L20.2929 14.793C20.4815 14.6108 20.7341 14.51 20.9963 14.5123C21.2585 14.5146 21.5093 14.6198 21.6947 14.8052C21.8801 14.9906 21.9853 15.2414 21.9876 15.5036C21.9899 15.7658 21.8891 16.0184 21.7069 16.207L17.7069 20.207C17.5194 20.3945 17.2651 20.4998 16.9999 20.4998C16.7348 20.4998 16.4804 20.3945 16.2929 20.207L12.2929 16.207C12.1108 16.0184 12.01 15.7658 12.0122 15.5036C12.0145 15.2414 12.1197 14.9906 12.3051 14.8052C12.4905 14.6198 12.7413 14.5146 13.0035 14.5123C13.2657 14.51 13.5183 14.6108 13.7069 14.793L15.9999 17.086Z" fill="#8A8A8E"/>
</svg>
