<svg viewBox="0 0 32 32" fill="none" xmlns="http://www.w3.org/2000/svg">
    <path
        d="M24.7336 15.1432C25.0888 15.6696 25.0888 16.3304 24.7336 16.8568C23.6149 18.5146 20.7037 22 16 22C11.2963 22 8.38509 18.5146 7.26639 16.8568C6.9112 16.3304 6.9112 15.6696 7.26639 15.1432C8.38509 13.4853 11.2963 10 16 10C20.7037 10 23.6149 13.4853 24.7336 15.1432Z"
        stroke="#7E7E7E" stroke-width="1.25" stroke-linecap="round" />
    <path
        d="M19.0858 16C19.0858 17.6569 17.7042 19 16 19C14.2958 19 12.9142 17.6569 12.9142 16C12.9142 14.3431 14.2958 13 16 13C17.7042 13 19.0858 14.3431 19.0858 16Z"
        stroke="#7E7E7E" stroke-width="1.25" stroke-linecap="round" />
</svg>