<svg viewBox="0 0 24 25" fill="none" xmlns="http://www.w3.org/2000/svg">
    <path
        d="M12 12.5C14.7614 12.5 17 10.2614 17 7.5C17 4.73858 14.7614 2.5 12 2.5C9.23858 2.5 7 4.73858 7 7.5C7 10.2614 9.23858 12.5 12 12.5Z"
        stroke="currentColor" stroke-width="1.5" stroke-linecap="round" stroke-linejoin="round" />
    <path d="M3.41016 22.5C3.41016 18.63 7.26015 15.5 12.0002 15.5C12.9602 15.5 13.8902 15.63 14.7602 15.87"
        stroke="currentColor" stroke-width="1.5" stroke-linecap="round" stroke-linejoin="round" />
    <path
        d="M23 17C23 17.56 22.93 18.1025 22.79 18.6275C22.6325 19.3275 22.3525 20.01 21.985 20.605C20.7775 22.635 18.555 24 16 24C14.1975 24 12.57 23.3174 11.345 22.1974C10.82 21.7424 10.365 21.2 10.015 20.605C9.36748 19.555 9 18.3125 9 17C9 15.11 9.75251 13.3775 10.9775 12.1175C12.255 10.805 14.04 10 16 10C18.065 10 19.9375 10.8925 21.1975 12.3275C22.3175 13.57 23 15.215 23 17Z"
        fill="white" />
    <path
        d="M18.6079 16.965H16.0004M16.0004 16.965H13.3929M16.0004 16.965V14.41M16.0004 16.965V19.6425M23 17C23 17.56 22.93 18.1025 22.79 18.6275C22.6325 19.3275 22.3525 20.01 21.985 20.605C20.7775 22.635 18.555 24 16 24C14.1975 24 12.57 23.3174 11.345 22.1974C10.82 21.7424 10.365 21.2 10.015 20.605C9.36748 19.555 9 18.3125 9 17C9 15.11 9.75251 13.3775 10.9775 12.1175C12.255 10.805 14.04 10 16 10C18.065 10 19.9375 10.8925 21.1975 12.3275C22.3175 13.57 23 15.215 23 17Z"
        stroke="currentColor" stroke-width="1.5" stroke-miterlimit="10" stroke-linecap="round"
        stroke-linejoin="round" />
</svg>